<?xml version="1.0" encoding="utf-8"?>
<!-- Generator: Adobe Illustrator 24.0.3, SVG Export Plug-In . SVG Version: 6.00 Build 0)  -->
<svg version="1.1" id="assets" xmlns="http://www.w3.org/2000/svg" xmlns:xlink="http://www.w3.org/1999/xlink" x="0px" y="0px"
	 viewBox="0 0 920 492.9" style="enable-background:new 0 0 920 492.9;" xml:space="preserve">
<style type="text/css">
	.st0{fill:#2A2A3E;}
	.st1{fill:#ABC7D6;}
	.st2{fill:#D6E4EB;}
	.st3{fill:#33779B;}
	.st4{fill:#99BBCD;}
	.st5{fill:#005582;}
	.st6{fill:#6699B4;}
	.st7{fill:#FFFFFF;}
	.st8{fill:#96456E;}
	.st9{fill:#DFC7D3;}
	.st10{fill:#F2F2F2;}
	.st11{fill:#FFE5CD;}
	.st12{fill:#8C965A;}
	.st13{opacity:0.8;fill:#F4F4F4;}
	.st14{opacity:0.8;}
	.st15{fill:#FFF2E6;}
	.st16{fill:#3FA1B3;}
	.st17{fill:#B06342;}
	.st18{fill:#FFBD8E;}
	.st19{fill:#FF7C07;}
	.st20{fill:#E6E6E6;}
	.st21{clip-path:url(#SVGID_2_);}
	.st22{fill:#EA5C29;}
	.st23{fill:#FFCAA5;}
	.st24{fill:#26263C;}
	.st25{fill:#FFF8F3;}
	.st26{fill:#FFCDA1;}
	.st27{fill:none;stroke:#CBAE81;stroke-width:0.2223;stroke-linecap:round;stroke-miterlimit:10;}
	.st28{fill:#A24721;}
	.st29{fill:#BB4619;}
	.st30{fill:#49495B;}
	.st31{fill:#966287;}
	.st32{fill:#FFD7BB;}
	.st33{fill:none;stroke:#C8C9CD;stroke-width:4.9174;stroke-linecap:round;stroke-miterlimit:10;}
	.st34{fill:none;stroke:#2A2A3E;stroke-width:6.7057;stroke-miterlimit:10;}
	.st35{fill:none;stroke:#2A2A3E;stroke-width:0.5158;stroke-miterlimit:10;}
	.st36{fill:#979AA0;}
	.st37{fill:none;stroke:#D3BA94;stroke-width:1.2749;stroke-linecap:round;stroke-miterlimit:10;}
	.st38{fill:#5CAFBE;}
	.st39{fill:none;stroke:#D3BA94;stroke-width:0.7801;stroke-linecap:round;stroke-miterlimit:10;}
	.st40{fill:none;stroke:#AD8B71;stroke-width:0.6765;stroke-linecap:round;stroke-miterlimit:10;}
	.st41{fill:#ED7449;}
	.st42{fill:#FF9639;}
	.st43{fill:#AD8B71;}
	.st44{fill:#FF902C;}
	.st45{fill:none;stroke:#CBAE81;stroke-width:1.0928;stroke-linecap:round;stroke-miterlimit:10;}
	.st46{fill:none;stroke:#CBAE81;stroke-width:1.6391;stroke-linecap:round;stroke-miterlimit:10;}
	.st47{fill:none;stroke:#8C965A;stroke-width:0.1821;stroke-miterlimit:10;}
	.st48{fill:none;stroke:#D3BA94;stroke-width:0.7958;stroke-linecap:round;stroke-miterlimit:10;}
	.st49{fill:#26567F;}
	.st50{fill:#9F7758;}
	.st51{fill:none;stroke:#8CB25A;stroke-width:16.2319;stroke-linecap:round;stroke-miterlimit:10;}
	.st52{fill:#8CB25A;}
	.st53{clip-path:url(#SVGID_4_);}
	.st54{clip-path:url(#SVGID_4_);fill:#8CB25A;}
	.st55{clip-path:url(#SVGID_4_);fill:#FF9639;}
	.st56{clip-path:url(#SVGID_4_);fill:#8C965A;}
	.st57{clip-path:url(#SVGID_6_);}
	.st58{fill:#FFD8B5;}
	.st59{fill:#CBAE81;}
	.st60{fill:#E9EAEA;}
	.st61{clip-path:url(#SVGID_8_);}
	.st62{fill:none;stroke:#D3BA94;stroke-width:2.0544;stroke-linecap:round;stroke-miterlimit:10;}
	.st63{fill:none;stroke:#D3BA94;stroke-width:1.4409;stroke-linecap:round;stroke-miterlimit:10;}
	.st64{fill:none;stroke:#AD8B71;stroke-width:0.9671;stroke-linecap:round;stroke-miterlimit:10;}
	.st65{fill:none;stroke:#AD8B71;stroke-width:1.8655;stroke-linecap:round;stroke-miterlimit:10;}
	.st66{fill:#EE7D54;}
	.st67{clip-path:url(#SVGID_10_);}
	.st68{fill:#FFBD83;}
	.st69{fill:#B56C4D;}
	.st70{opacity:0.6;fill:#FFE5CD;}
	.st71{fill:#B97558;}
</style>
<g>
	<path class="st17" d="M920,399.9h-68.1c-43.1-2.5-73.4-5.5-147.5-5.9c-17.3-0.1-108.1-0.5-125.2,0.1c-125.9,4-175,0.1-279.6-3.6
		c-55.3-2-137.6,4.5-238.1,9.4H0l20.6,63.8c5.6,17.4,21.8,29.1,40,29.1h798.8c18.2,0,34.4-11.8,40-29.1L920,399.9z"/>
	<path class="st18" d="M422.2,387.9c0-10.5-0.6-15,0.6-21.6c1.2-6.5,5.5-20.3,4.8-28c-0.7-7.7-1.5-29.7-1.8-32.9s-12.7-3.1-12.7-3.1
		s-0.2,42.9,1.1,60.3s1.6,25,1.6,25L422.2,387.9z"/>
	<g>
		<path class="st19" d="M424,387.1c0.4,1.8,0.4,7.2,0.4,7.2l-5.1,0.6l-0.1-1.5c0,0-2.8,1.8-6.3,2.3c-3.5,0.5-7.7-0.2-7.6-0.9
			c0.5-2.7,3.1-2.8,4.2-3.3c3.4-1.5,5.7-2.9,6.1-4.8l1.9,0.4c0.1,0,3.5,0,4.8-2C422.4,385.1,423.7,385.3,424,387.1z"/>
	</g>
	<g>
		<path class="st18" d="M439.9,387.9c0-10.5,0.6-15-0.6-21.6c-1.2-6.5-5.5-20.3-4.8-28c0.7-7.7,1.5-29.7,1.8-32.9
			c0.3-3.2,12.7-3.1,12.7-3.1s0.2,42.9-1.1,60.3c-1.2,17.4-1.6,25-1.6,25L439.9,387.9z"/>
	</g>
	<g>
		<path class="st20" d="M412,221.4c-7.1,16.9-12.5,40-13.7,69.7c-1.2,29.7-0.4,36-0.4,36s6,2.1,26.2-0.9c20.2-3,38.2-0.5,38.3-0.5
			c0.1,0,3.3-30.4-0.7-56.2s-10.7-41.3-17-49.1C438.5,212.5,412,221.4,412,221.4"/>
		<g>
			<defs>
				<path id="SVGID_1_" d="M412,221.4c-7.1,16.9-12.5,40-13.7,69.7c-1.2,29.7-0.4,36-0.4,36s6,2.1,26.2-0.9
					c20.2-3,38.2-0.5,38.3-0.5c0.1,0,3.3-30.4-0.7-56.2s-10.7-41.3-17-49.1C438.5,212.5,412,221.4,412,221.4"/>
			</defs>
			<clipPath id="SVGID_2_">
				<use xlink:href="#SVGID_1_"  style="overflow:visible;"/>
			</clipPath>
			<g class="st21">
				<path class="st0" d="M416.6,243.6c-0.1-0.2-0.1-0.3-0.2-0.5c-0.1-0.1-0.2-0.3-0.3-0.4c-0.1-0.1-0.1-0.1-0.2-0.2c0,0,0,0,0,0
					c-0.1-0.1-0.2-0.2-0.4-0.3c-0.1-0.1-0.2-0.2-0.2-0.2c-0.1,0-0.4-0.2-0.5-0.2c-0.3-0.1-0.5-0.1-0.8,0c-0.3,0-0.5,0-0.8,0.2
					c-0.1,0.1-0.3,0.2-0.4,0.3c0,0,0,0-0.1,0.1c-0.1,0.1-0.1,0.1-0.2,0.2c-0.1,0.1-0.2,0.3-0.2,0.4c-0.1,0.2-0.2,0.5-0.2,0.7
					c0,0.2,0,0.3,0.1,0.5c0.1,0.3,0.2,0.5,0.3,0.8c0.1,0.2,0.2,0.3,0.4,0.5c0,0,0,0,0,0c0.1,0.1,0.3,0.3,0.4,0.3c0,0,0,0,0,0
					c0.1,0.1,0.4,0.2,0.5,0.2c0.1,0,0.4,0.1,0.5,0.1c0,0,0,0,0,0c0.2,0,0.4,0,0.5-0.1c0.1,0,0.4-0.1,0.5-0.2
					c0.2-0.1,0.3-0.2,0.5-0.3c0.1-0.1,0.3-0.3,0.4-0.5c0.2-0.3,0.3-0.7,0.3-1.1C416.7,243.9,416.7,243.7,416.6,243.6z"/>
				<path class="st0" d="M440.9,240.5c-0.1-0.1-0.1-0.3-0.2-0.4c-0.2-0.3-0.4-0.5-0.7-0.7c-0.5-0.3-1.1-0.4-1.6-0.2
					c-0.1,0-0.1,0.1-0.2,0.1c-0.2,0.1-0.5,0.2-0.6,0.3c-0.2,0.1-0.4,0.3-0.5,0.5c-0.1,0.2-0.2,0.4-0.2,0.7c-0.1,0.2,0,0.5,0,0.7
					c0.1,0.1,0.1,0.3,0.2,0.4c0.2,0.3,0.4,0.5,0.7,0.7c0.1,0.1,0.3,0.1,0.4,0.2c0.3,0.1,0.7,0.1,1,0l0.2-0.1
					c0.2-0.1,0.3-0.1,0.5-0.2c0.3-0.2,0.6-0.4,0.7-0.7c0.1-0.2,0.2-0.4,0.2-0.7C440.9,241,440.9,240.8,440.9,240.5z"/>
				<path class="st0" d="M427.8,232.5c-2.4,0-2.5,3.8,0,3.8C430.3,236.3,430.3,232.5,427.8,232.5z"/>
				<path class="st0" d="M440.7,253.3c-2.5,0-2.5,3.8,0,3.8C443.2,257.2,443.2,253.3,440.7,253.3z"/>
				<path class="st0" d="M450.6,262.4c-2.4,0-2.4,3.8,0,3.8C453,266.1,453,262.4,450.6,262.4z"/>
				<path class="st0" d="M428.4,265.9c0-0.1,0-0.2,0-0.2c0-0.3-0.1-0.6-0.3-0.9c-0.1-0.2-0.2-0.4-0.4-0.5c-0.2-0.2-0.4-0.3-0.6-0.4
					c-0.2-0.1-0.4-0.2-0.7-0.2c-0.1,0-0.3,0-0.4,0c-0.2,0-0.3,0-0.5,0.1c-0.2,0.1-0.4,0.2-0.6,0.4c-0.2,0.2-0.3,0.4-0.4,0.6
					c-0.1,0.1-0.2,0.3-0.2,0.5c-0.1,0.2-0.1,0.4-0.1,0.6c-0.1,0.2-0.1,0.5-0.1,0.8c0,1.2,1.2,2.1,2.4,1.8c0.8-0.2,1.5-0.9,1.7-1.7
					C428.4,266.6,428.4,266.3,428.4,265.9z"/>
				<path class="st0" d="M436,266.1c-2.3,0-2.3,3.5,0,3.5C438.3,269.6,438.3,266.1,436,266.1z"/>
				<path class="st0" d="M432.4,255.5c-2.3,0-2.3,3.6,0,3.6C434.7,259.1,434.7,255.5,432.4,255.5z"/>
				<path class="st0" d="M410.5,258.6c-0.1-0.3-0.2-0.5-0.3-0.8c-0.1-0.1-0.2-0.3-0.3-0.4c-0.2-0.2-0.4-0.3-0.6-0.4
					c-0.4-0.2-0.8-0.2-1.2-0.1c-0.3,0.1-0.5,0.2-0.7,0.4c-0.1,0-0.2,0.1-0.3,0.1c-0.3,0.2-0.5,0.4-0.7,0.7c-0.2,0.3-0.3,0.6-0.3,0.9
					c0,0.4,0,0.9,0.3,1.2c0.2,0.3,0.4,0.5,0.7,0.7c0.1,0.1,0.3,0.1,0.4,0.2c0,0,0,0,0,0c0.2,0.1,0.3,0.1,0.5,0.2
					c0.3,0.1,0.5,0.1,0.8,0c0.2,0,0.3,0,0.5-0.1c0.2-0.1,0.3-0.1,0.4-0.2c0,0,0,0,0,0c0.3-0.2,0.5-0.4,0.7-0.7
					c0.2-0.3,0.3-0.6,0.3-1C410.6,259.1,410.6,258.8,410.5,258.6z"/>
				<path class="st0" d="M417.6,254.5c-2.5,0-2.5,3.8,0,3.8C420.1,258.4,420.1,254.5,417.6,254.5z"/>
				<path class="st0" d="M416,269.8c0-0.1,0-0.2,0-0.2c0-0.1,0-0.2,0-0.3c0,0,0-0.1,0-0.1c0-0.1,0-0.2,0-0.3c0-0.3-0.1-0.5-0.2-0.7
					l-0.3-0.4c-0.1-0.1-0.3-0.3-0.5-0.4c-0.2-0.1-0.3-0.2-0.5-0.2c-0.1,0-0.4-0.1-0.5-0.1c-0.1,0-0.5,0.1-0.5,0.1
					c-0.1,0-0.4,0.2-0.5,0.2c-0.2,0.1-0.3,0.2-0.4,0.3c0,0,0,0,0,0c0,0,0,0,0,0l0,0c0,0-0.1,0-0.1,0.1c-0.1,0.1-0.2,0.3-0.3,0.4
					l-0.2,0.5c-0.1,0.3-0.1,0.5,0,0.8c0,0.2,0,0.3,0.1,0.5c0,0.2,0.1,0.3,0.2,0.4c0,0,0,0,0,0c0,0,0,0,0,0c0.1,0.3,0.3,0.7,0.5,1
					c0,0,0.4,0.3,0.4,0.3l0.5,0.2c0.2,0,0.3,0,0.5,0.1c0.2,0,0.3,0,0.5-0.1c0.1,0,0.2-0.1,0.2-0.1c0.2,0,0.3-0.1,0.4-0.2
					c0.1-0.1,0.3-0.2,0.3-0.3c0.1-0.1,0.1-0.1,0.2-0.2c0.1-0.2,0.1-0.3,0.2-0.5C415.9,270.2,416,270.1,416,269.8
					C416,269.9,416,269.8,416,269.8z"/>
				<path class="st0" d="M405,279.2c-2.4,0-2.4,3.7,0,3.7C407.4,282.9,407.4,279.2,405,279.2z"/>
				<path class="st0" d="M399.3,292.3c-2.4,0-2.4,3.8,0,3.8C402.2,296,402.2,292.3,399.3,292.3z"/>
				<path class="st0" d="M411,295c-2.4,0-2.5,3.8,0,3.8C413.5,298.8,413.5,295,411,295z"/>
				<path class="st0" d="M399.2,282.1c-2.4,0-2.5,3.8,0,3.8C401.6,285.9,401.6,282.1,399.2,282.1z"/>
				<path class="st0" d="M432.8,287.7c-2.5,0-2.5,3.9,0,3.9C435.3,291.6,435.3,287.7,432.8,287.7z"/>
				<path class="st0" d="M423.3,293.8c-2.4,0-2.4,3.7,0,3.7C425.7,297.6,425.7,293.8,423.3,293.8z"/>
				<path class="st0" d="M429.5,279.1c-1.6,0-1.6,2.6,0,2.6C431.1,281.7,431.1,279.1,429.5,279.1z"/>
				<path class="st0" d="M442.5,282c-2.4,0-2.4,3.8,0,3.8C444.9,285.8,444.9,282,442.5,282z"/>
				<path class="st0" d="M444.2,299.6c-2.2,0-2.2,3.5,0,3.5C446.5,303.1,446.5,299.6,444.2,299.6z"/>
				<path class="st0" d="M462.5,279.1c-2.2,0-2.2,3.5,0,3.5C464.7,282.6,464.7,279.1,462.5,279.1z"/>
				<path class="st0" d="M455.1,290.1c-2.5,0-2.5,3.9,0,3.9C457.6,294,457.6,290.1,455.1,290.1z"/>
				<path class="st0" d="M455.7,279.8c-2.5,0-2.5,3.8,0,3.8C458.1,283.6,458.1,279.8,455.7,279.8z"/>
				<path class="st0" d="M460.6,258.9c-2.5,0-2.5,3.8,0,3.8C463.1,262.8,463.1,258.9,460.6,258.9z"/>
				<path class="st0" d="M452.6,299.2c-2.3,0-2.3,3.6,0,3.6C454.9,302.7,454.9,299.2,452.6,299.2z"/>
				<path class="st0" d="M426.4,303.5c-2.2,0-2.2,3.4,0,3.4C428.6,307,428.6,303.5,426.4,303.5z"/>
				<path class="st0" d="M445.9,272.8c-2.1,0-2.1,3.3,0,3.3C448,276.1,448,272.8,445.9,272.8z"/>
				<path class="st0" d="M451.2,315.9c-2.4,0-2.4,3.8,0,3.8C453.6,319.6,453.7,315.9,451.2,315.9z"/>
				<path class="st0" d="M458.8,310.6c-2.1,0-2.1,3.2,0,3.2C460.8,313.8,460.8,310.6,458.8,310.6z"/>
				<path class="st0" d="M460.2,322.6c-2.4,0-2.4,3.8,0,3.8C462.6,326.3,462.6,322.6,460.2,322.6z"/>
				<path class="st0" d="M441.7,307.6c-2.3,0-2.3,3.6,0,3.6C444,311.2,444,307.6,441.7,307.6z"/>
				<path class="st0" d="M434.6,318.5c-2.3,0-2.4,3.6,0,3.6C436.9,322.1,436.9,318.5,434.6,318.5z"/>
				<path class="st0" d="M416.2,315.7c-0.2-0.3-0.4-0.5-0.7-0.7c0,0,0,0,0,0c-0.2-0.1-0.3-0.1-0.5-0.2c-0.1,0-0.1,0-0.3,0
					c0.1,0-0.2,0-0.3,0c0,0-0.5,0.1-0.5,0.1c0,0-0.4,0.2-0.5,0.2c0,0,0,0,0,0c0,0,0,0,0,0c-0.1,0.1-0.3,0.2-0.4,0.3
					c0,0-0.1,0.1-0.1,0.1c-0.2,0.2-0.3,0.4-0.4,0.6c-0.1,0.2-0.2,0.5-0.2,0.7c0,0.3,0,0.5,0.2,0.7c0.1,0.2,0.2,0.4,0.4,0.6
					c0.1,0.1,0.3,0.2,0.4,0.3c0.3,0.2,0.6,0.3,1,0.3l0.3,0c0.2,0,0.4-0.1,0.6-0.2c0.2-0.1,0.4-0.2,0.6-0.4c0.3-0.2,0.5-0.6,0.6-0.9
					C416.6,316.7,416.5,316.2,416.2,315.7z"/>
				<path class="st0" d="M412.7,304.9c-2.4,0-2.4,3.7,0,3.7C415.1,308.6,415.1,304.9,412.7,304.9z"/>
				<path class="st0" d="M423.9,310.2c-2.1,0-2.1,3.3,0,3.3C426.1,313.5,426.1,310.2,423.9,310.2z"/>
				<path class="st0" d="M402.4,314.4c-2.3,0-2.3,3.5,0,3.5C404.7,317.9,404.7,314.4,402.4,314.4z"/>
				<path class="st0" d="M402.7,324.6C402.7,324.6,402.7,324.5,402.7,324.6c0-0.1,0-0.2-0.1-0.3c-0.1-0.2-0.1-0.3-0.2-0.5
					c-0.1-0.2-0.3-0.4-0.5-0.5c-0.2-0.2-0.3-0.3-0.7-0.3c-0.2,0-0.3,0-0.5-0.1c-0.2,0-0.3,0-0.5,0.1c-0.1,0-0.2,0.1-0.2,0.1
					c-0.2,0-0.3,0.1-0.4,0.2c-0.2,0.1-0.4,0.3-0.5,0.5c-0.1,0.2-0.1,0.3-0.2,0.5c-0.1,0.3-0.1,0.5,0,0.8c0,0.1,0,0.2,0.1,0.3
					c0.1,0.2,0.2,0.4,0.2,0.6c0,0.1,0.1,0.1,0.1,0.2c0.1,0.1,0.2,0.3,0.3,0.4c0.1,0.1,0.3,0.2,0.4,0.3c0.1,0,0.2,0.1,0.3,0.1
					c0.1,0,0.2,0.1,0.3,0.1c0.2,0.1,0.5,0.1,0.7,0c0.2,0,0.5-0.1,0.7-0.2c0.1-0.1,0.3-0.2,0.4-0.3c0.2-0.2,0.4-0.5,0.5-0.8
					C402.9,325.4,402.9,325,402.7,324.6z"/>
				<path class="st0" d="M413.2,321.5c-2.5,0-2.5,3.9,0,3.9C415.7,325.3,415.7,321.5,413.2,321.5z"/>
				<path class="st0" d="M421.7,324.2c-2.1,0-2.1,3.3,0,3.3C423.8,327.4,423.8,324.2,421.7,324.2z"/>
				<path class="st0" d="M403.5,300.7c-2,0-2,3.1,0,3.1C405.5,303.8,405.5,300.7,403.5,300.7z"/>
				<path class="st0" d="M410.5,289.2c-0.1-0.3-0.2-0.5-0.4-0.7c-0.1-0.1-0.2-0.2-0.3-0.2c-0.2-0.1-0.5-0.2-0.8-0.2
					c-0.2,0-0.4,0-0.6,0.1c-0.2,0.1-0.4,0.2-0.5,0.3c-0.2,0.2-0.3,0.4-0.4,0.7c-0.1,0.3-0.1,0.5,0,0.8c0,0,0,0.1,0,0.1
					c0.1,0.1,0.1,0.2,0.2,0.4c0.1,0.2,0.2,0.3,0.4,0.4c0.1,0.1,0.2,0.2,0.3,0.2c0.2,0.1,0.4,0.1,0.6,0.1c0.1,0,0.3,0,0.4-0.1
					c0.1-0.1,0.2-0.1,0.4-0.2c0.2-0.1,0.3-0.2,0.4-0.4c0.1-0.1,0.2-0.3,0.3-0.5c0,0,0-0.1,0-0.1
					C410.6,289.8,410.6,289.5,410.5,289.2z"/>
				<path class="st0" d="M423.4,283.9c-2.3,0-2.3,3.6,0,3.6C425.7,287.6,425.8,283.9,423.4,283.9z"/>
				<path class="st0" d="M436.4,298.1c-2.4,0-2.5,3.8,0,3.8C438.9,301.9,438.9,298.1,436.4,298.1z"/>
				<path class="st0" d="M445.9,320.8c-2.5,0-2.5,3.8,0,3.8C448.3,324.6,448.3,320.8,445.9,320.8z"/>
				<path class="st0" d="M447.2,289.1c-2.3,0-2.3,3.6,0,3.6C449.5,292.7,449.5,289.1,447.2,289.1z"/>
				<path class="st0" d="M458.8,268.3c-2.3,0-2.3,3.6,0,3.6C461,271.8,461,268.3,458.8,268.3z"/>
				<path class="st0" d="M456.1,251.8c-2,0-2,3.1,0,3.1C458.1,254.9,458.1,251.8,456.1,251.8z"/>
				<path class="st0" d="M448.5,235.1c-1.7,0-1.7,2.6,0,2.6C450.2,237.7,450.2,235.1,448.5,235.1z"/>
				<path class="st0" d="M414,231.4c-2.3,0-2.3,3.5,0,3.5C416.3,235,416.3,231.4,414,231.4z"/>
				<path class="st0" d="M407.1,233c-2.2-0.1-2.2,3.3,0,3.4C409.9,236.5,409.7,233.1,407.1,233z"/>
				<path class="st0" d="M408,240.8c-2.4,0-2.4,3.7,0,3.7C410.3,244.5,410.3,240.8,408,240.8z"/>
				<path class="st0" d="M408,249.8c-0.1-0.1-0.2-0.3-0.4-0.3c-0.1-0.1-0.1-0.1-0.2-0.1c-0.2-0.1-0.3-0.1-0.5-0.1
					c-0.2,0-0.5,0.1-0.7,0.3c-0.2,0.2-0.3,0.4-0.3,0.7c0,0.2,0.1,0.5,0.3,0.7c0.2,0.2,0.4,0.3,0.7,0.3c0.2,0,0.4,0,0.5-0.1
					c0.1,0,0.1-0.1,0.2-0.2l0.1,0c0.1,0,0.1-0.1,0.2-0.2c0.1-0.1,0.2-0.3,0.1-0.4C408.1,250,408.1,249.9,408,249.8z"/>
				<path class="st0" d="M403.7,259.6c-0.1-0.2-0.2-0.4-0.3-0.6c-0.1-0.2-0.3-0.4-0.5-0.5c-0.1-0.1-0.3-0.1-0.4-0.2
					c-0.3-0.1-0.7-0.1-1,0c-0.1,0.1-0.3,0.1-0.4,0.2c-0.3,0.2-0.5,0.4-0.7,0.7c0,0.1-0.1,0.2-0.1,0.3c-0.1,0.2-0.2,0.4-0.2,0.7
					c-0.1,0.2,0,0.5,0,0.7c0.1,0.2,0.2,0.4,0.3,0.6c0.1,0.2,0.3,0.4,0.5,0.5c0.1,0.1,0.3,0.1,0.4,0.2c0.3,0.1,0.7,0.1,1,0
					c0.1-0.1,0.3-0.1,0.4-0.2c0.3-0.2,0.5-0.4,0.7-0.7c0-0.1,0.1-0.2,0.1-0.3c0.1-0.2,0.2-0.4,0.2-0.7
					C403.8,260.1,403.8,259.8,403.7,259.6z"/>
				<path class="st0" d="M403.4,266.4c-2.4,0-2.4,3.7,0,3.7C405.8,270.2,405.8,266.4,403.4,266.4z"/>
				<path class="st0" d="M408.1,271.3c-2.4,0-2.4,3.7,0,3.7C410.5,275,410.5,271.3,408.1,271.3z"/>
				<path class="st0" d="M425,271.7c-2.2,0-2.2,3.4,0,3.4C427.2,275.1,427.2,271.7,425,271.7z"/>
				<path class="st0" d="M432,272.1c-2.4,0-2.4,3.7,0,3.7C434.4,275.8,434.4,272.1,432,272.1z"/>
				<path class="st0" d="M435,245.7c-2.4,0-2.4,3.7,0,3.7C437.4,249.5,437.4,245.7,435,245.7z"/>
				<path class="st0" d="M436.7,231.4c-0.1-0.1-0.1-0.2-0.2-0.4c-0.1-0.2-0.2-0.3-0.4-0.4c-0.1-0.1-0.2-0.2-0.3-0.2
					c-0.1-0.1-0.3-0.1-0.4-0.1c-0.1,0-0.3,0-0.4,0c-0.2,0-0.4,0.1-0.6,0.2c-0.1,0.1-0.3,0.1-0.4,0.2c-0.5,0.3-0.9,0.9-0.9,1.5
					c0,0.3,0.1,0.6,0.2,0.9c0.1,0.2,0.3,0.4,0.5,0.5c0.2,0.2,0.4,0.3,0.6,0.3c0.3,0.1,0.6,0.1,0.9,0c0.3-0.1,0.6-0.2,0.8-0.5
					c0.2-0.2,0.4-0.5,0.5-0.8c0-0.2,0-0.3,0.1-0.5c0-0.1,0-0.3,0.1-0.4C436.8,231.7,436.8,231.6,436.7,231.4z"/>
				<path class="st0" d="M444.1,228.1c-2.3,0-2.3,3.6,0,3.6C446.4,231.6,446.4,228.1,444.1,228.1z"/>
				<path class="st0" d="M449.4,226.5c-2.3,0-2.4,3.6,0,3.6C451.7,230.2,451.7,226.5,449.4,226.5z"/>
				<path class="st0" d="M454.6,240c-2.2,0-2.2,3.3,0,3.3C456.7,243.3,456.8,240,454.6,240z"/>
				<path class="st0" d="M460.8,288.6c-2.4,0-2.4,3.8,0,3.8C463.2,292.3,463.2,288.6,460.8,288.6z"/>
				<path class="st0" d="M462.1,303.1c-2.4,0-2.4,3.8,0,3.8C464.6,306.9,464.6,303.1,462.1,303.1z"/>
				<path class="st0" d="M451.9,306.5c-2.4,0-2.4,3.7,0,3.7C454.3,310.2,454.3,306.5,451.9,306.5z"/>
				<path class="st0" d="M433.1,310c-1.8,0-1.8,2.8,0,2.8C434.9,312.8,434.9,310,433.1,310z"/>
				<path class="st0" d="M427.3,246.8c-0.2-0.3-0.5-0.6-0.8-0.8c-0.4-0.2-0.8-0.3-1.3-0.3c-0.3,0-0.5,0-0.8,0.2
					c-0.2,0.1-0.5,0.2-0.6,0.4c-0.3,0.4-0.6,0.9-0.6,1.4c0,0.3,0,0.5,0.1,0.8c0,0.1,0.1,0.3,0.1,0.4c0,0.1,0.1,0.2,0.1,0.2
					c0.1,0.1,0.2,0.3,0.3,0.4c0.1,0.1,0.2,0.1,0.2,0.2c0.1,0.1,0.3,0.2,0.4,0.3c0.3,0.2,0.6,0.3,1,0.3c0.4,0,0.7-0.1,1-0.3
					c0.3-0.2,0.5-0.4,0.7-0.7c0.2-0.2,0.3-0.5,0.4-0.8c0-0.2,0.1-0.4,0.1-0.6c0,0,0,0,0-0.1C427.6,247.6,427.5,247.1,427.3,246.8z"
					/>
				<path class="st0" d="M449.8,247.2c-0.1-0.5-0.4-0.9-0.9-1.1c-0.2-0.1-0.3-0.1-0.5-0.2c-0.2-0.1-0.4-0.1-0.6-0.1
					c-0.1,0-0.1-0.1-0.2-0.1c-0.3-0.1-0.7-0.1-1,0c-0.6,0.2-1.2,0.7-1.4,1.4c-0.1,0.5-0.2,1,0,1.5c0.2,0.6,0.6,1,1.1,1.3
					c0.2,0.1,0.5,0.2,0.8,0.2c0.4,0,0.7-0.1,1-0.3c0.1-0.1,0.2-0.2,0.3-0.2c0,0,0,0,0,0c0,0,0,0,0,0c0.5-0.2,0.9-0.4,1.1-0.9
					C449.8,248.2,449.9,247.6,449.8,247.2z"/>
				<path class="st0" d="M418.9,279.7C418.9,279.7,418.9,279.7,418.9,279.7c-0.1-0.2-0.2-0.3-0.3-0.4c0,0,0,0-0.1-0.1
					c-0.1-0.1-0.2-0.1-0.2-0.2c-0.1,0-0.1-0.1-0.2-0.2c0,0-0.1,0-0.1,0c-0.2-0.1-0.5-0.2-0.7-0.2c-0.3-0.1-0.5,0-0.8,0
					c-0.2,0.1-0.3,0.1-0.5,0.2c-0.3,0.2-0.5,0.4-0.7,0.7c0,0,0,0.1-0.1,0.1c-0.1,0.1-0.1,0.2-0.1,0.3c-0.1,0.3-0.2,0.4-0.2,0.8
					c0,0,0,0.1,0,0.1c0,0.3,0,0.5,0.2,0.8c0.1,0.2,0.2,0.5,0.4,0.6c0.1,0.1,0.3,0.2,0.4,0.3c0.2,0.1,0.5,0.2,0.7,0.2
					c0.2,0,0.3,0,0.5,0c0.3,0,0.5-0.1,0.7-0.2c0,0,0.1-0.1,0.1-0.1c0.1,0,0.1-0.1,0.2-0.1c0.1-0.1,0.3-0.2,0.4-0.3
					c0.2-0.2,0.4-0.5,0.5-0.9c0-0.2,0-0.3,0.1-0.5C419.2,280.4,419.1,280,418.9,279.7z"/>
				<path class="st0" d="M444,262.8c-2.3,0-2.4,3.6,0,3.6C446.3,266.5,446.3,262.8,444,262.8z"/>
				<path class="st0" d="M437.9,281c-1.1,0-1.1,1.7,0,1.7C439,282.8,439,281,437.9,281z"/>
				<path class="st0" d="M418.2,301.6c-1.1,0-1.1,1.7,0,1.7C419.3,303.3,419.3,301.6,418.2,301.6z"/>
				<path class="st0" d="M423.7,317.9c-1.1,0-1.1,1.7,0,1.7C424.8,319.6,424.8,317.9,423.7,317.9z"/>
				<path class="st0" d="M405.2,309.8c-1.1,0-1.1,1.7,0,1.7C406.3,311.5,406.3,309.8,405.2,309.8z"/>
				<path class="st0" d="M444.5,314.8c-1.1,0-1.1,1.7,0,1.7C445.7,316.5,445.7,314.8,444.5,314.8z"/>
				<path class="st0" d="M452.4,274.1c-1.1,0-1.1,1.7,0,1.7C453.5,275.8,453.5,274.1,452.4,274.1z"/>
				<path class="st0" d="M449.8,257.4c-1.1,0-1.1,1.7,0,1.7C450.9,259.1,450.9,257.4,449.8,257.4z"/>
				<path class="st0" d="M422.5,239.1c-1.1,0-1.1,1.7,0,1.7C423.6,240.9,423.6,239.1,422.5,239.1z"/>
				<path class="st0" d="M421.4,230.8c-1.1,0-1.1,1.7,0,1.7C422.5,232.5,422.5,230.8,421.4,230.8z"/>
			</g>
		</g>
	</g>
	<g>
		<path class="st19" d="M439.9,385.1c1.3,2,4.7,2,4.8,2l1.9-0.4c0.5,1.9,2.8,3.3,6.1,4.8c1.1,0.5,3.8,0.5,4.2,3.3
			c0.1,0.7-4.1,1.3-7.6,0.9c-3.5-0.5-6.3-2.3-6.3-2.3l-0.1,1.5l-5.1-0.6c0,0,0-5.4,0.4-7.2C438.6,385.3,439.9,385.1,439.9,385.1z"/>
	</g>
	<path class="st22" d="M432,113.8c-6.6-3.9-23-1.7-24.3,16.2c-1.3,17.9,1.3,33.9,1.3,33.9H448c0,0-2.6-7.8-0.7-13.2
		C450.3,142.1,452.6,106.9,432,113.8z"/>
	<path class="st18" d="M435.7,149.5c0,0-1.1,7.5,3.3,11.5c4.4,4,8.5,7.8,9.6,10.2l-46.2-0.9c0,0,4.7-5.4,6.7-6.4
		c2-1,12.9-1.2,11.1-14.4"/>
	<g>
		<path class="st23" d="M415.3,133.6c0.2-4.5,0.6-8.7,1.3-9.6c1.4-2.1,5.8-6.4,15.4-5.1c8.5,1.2,10.7,7.7,10.8,13.6
			c0,0.7,0,1.4-0.1,2.1c0,0-2.8,10.9-3.1,11.9c-0.8,2.8-6.4,9.9-11.3,9.6s-9.7-7.2-10.2-9.2C417.8,145.7,415.1,139.3,415.3,133.6"/>
		<g>
			<path class="st23" d="M416.3,136.1c0,0-2.2-1.3-3.4,0.4c-0.7,0.9-1.1,6.2,4.8,5.7"/>
			<path class="st23" d="M440.4,136.3c0,0,2.2-1.3,3.4,0.4c0.7,0.9,1.1,6.2-4.8,5.7"/>
		</g>
	</g>
	<path class="st22" d="M435.4,118.6c-0.4,3-16,15.9-22,16c-6,0.1-3.2-10.7-1.4-12.6c1.8-1.9,13.4-5,13.4-5L435.4,118.6z"/>
	<path class="st22" d="M432,118.9c1.8,6.3,11.8,15.2,12.1,15c0.4-0.2-1.4-13.4-1.4-13.4L432,118.9z"/>
	<path class="st5" d="M450.3,161.9c-2.3-1.7-7.1-2.8-12.8-3.4c-1.2,2.7-3.8,7.2-9.1,10.2c-5.8-2.5-8.7-8-9.7-10.3
		c-5.8,0.5-11,1.5-14.4,2.9c-3.4,1.5-3.6,4.8-2.9,8.4l9.2,46.9c0.4,2.3,0.1,4.6-1.1,6.6l-1.8,3.1l42.7-0.6l-2-3.5
		c-0.8-1.5-1.3-3.1-1.3-4.8C447,191.5,458.6,167.8,450.3,161.9z"/>
	<g>
		<path class="st23" d="M415.5,211.9c0.1-0.6-0.2-1.1-0.8-1.3l-5.1-1.3c-0.5-0.1-1.1-0.1-1.6,0c-1,0.3-4.1,1.7-3.8,2.5
			c1.9,4.3,6.2,2.2,7.1,0.9c1.1-0.5,2-0.3,2.8-0.1C414.8,212.8,415.3,212.5,415.5,211.9L415.5,211.9z"/>
		<path class="st23" d="M415.5,213c0.9,0.1,1.5-0.2,1.7-0.7c0.2-0.5,0.3-0.9-0.6-1.1l-1.6-0.4c-0.6-0.1-1.2,0.2-1.3,0.8c0,0,0,0,0,0
			c-0.1,0.5,0.2,1.1,0.8,1.2C414.9,212.9,415,212.9,415.5,213z"/>
	</g>
	<g>
		<path class="st23" d="M438.1,211.9c-0.1-0.6,0.2-1.1,0.8-1.3l5.1-1.3c0.5-0.1,1.1-0.1,1.6,0c1,0.3,4.1,1.7,3.8,2.5
			c-1.9,4.3-6.2,2.2-7.1,0.9c-1.1-0.5-2-0.3-2.8-0.1C438.8,212.8,438.2,212.5,438.1,211.9L438.1,211.9z"/>
		<path class="st23" d="M438.1,213c-0.9,0.1-1.5-0.2-1.7-0.7c-0.2-0.5-0.3-0.9,0.6-1.1l1.6-0.4c0.6-0.1,1.2,0.2,1.3,0.8c0,0,0,0,0,0
			c0.1,0.5-0.2,1.1-0.8,1.2C438.7,212.9,438.5,212.9,438.1,213z"/>
	</g>
	<rect x="411" y="181.8" class="st19" width="32.3" height="45.7"/>
	<g>
		<path class="st23" d="M457.2,209.2L457.2,209.2c1,1.7,0.8,3.7-0.5,4.5l-7.3,4.5c-1.3,0.8-3.2,0.1-4.2-1.6l0,0
			c-1-1.7-0.8-3.7,0.5-4.5l7.3-4.5C454.3,206.8,456.2,207.5,457.2,209.2z"/>
		<path class="st5" d="M447.3,208.4l5.3,8.6l22-12.4c3-1.9,3.9-6,1.9-9.2v0c-2.1-3.4-6.5-4.4-9.5-2.1L447.3,208.4z"/>
	</g>
	<path class="st5" d="M474.5,203.3c2.8-1.7,3.6-5.3,1.9-8.1c-6.3-10-21.2-28.9-23.1-31.3c-5.3-6.4-20-0.4-11.9,11.9
		c7.3,11,17.6,22.2,24.5,26.1C468.3,203.4,472.1,204.8,474.5,203.3L474.5,203.3z"/>
	<g>
		<path class="st23" d="M396.3,209.2L396.3,209.2c-1,1.7-0.8,3.7,0.5,4.5l7.3,4.5c1.3,0.8,3.2,0.1,4.2-1.6v0c1-1.7,0.8-3.7-0.5-4.5
			l-7.3-4.5C399.3,206.8,397.4,207.5,396.3,209.2z"/>
		<path class="st5" d="M406.2,208.4l-5.3,8.6l-22-12.4c-3-1.9-3.9-6-1.9-9.2l0,0c2.1-3.4,6.5-4.4,9.5-2.1L406.2,208.4z"/>
	</g>
	<path class="st5" d="M378.9,203.2c-2.8-1.7-3.6-5.3-1.8-8.1c6.3-9.9,21.3-28.8,23.2-31.2c5.3-6.4,20-0.3,11.8,12
		c-7.4,11-17.8,22.1-24.6,26C385.1,203.3,381.2,204.7,378.9,203.2L378.9,203.2z"/>
	<g>
		<path class="st23" d="M438.4,220.1l2.7-0.6c0.5-0.1,1.1,0.2,1.2,0.8c0.1,0.5-0.2,1-0.7,1.1l-2.7,0.6c-0.5,0.1-1.2-0.1-1.3-0.6
			l0-0.2C437.4,220.7,437.9,220.2,438.4,220.1z"/>
		<path class="st23" d="M436.1,218.1l4.1-0.9c0.6-0.1,1.2,0.3,1.4,0.9l0,0c0.1,0.6-0.3,1.2-0.9,1.4l-4.1,0.9
			c-0.5,0.1-0.9-0.2-1.1-0.7l-0.1-0.5C435.3,218.7,435.6,218.2,436.1,218.1z"/>
		<path class="st23" d="M434.9,215.8l3.9-0.8c0.6-0.1,1.2,0.2,1.4,0.8c0.2,0.6-0.2,1.3-0.9,1.4l-3.9,0.8c-0.5,0.1-0.9-0.2-1.1-0.7
			l-0.1-0.5C434.1,216.4,434.4,215.9,434.9,215.8z"/>
		<path class="st23" d="M435.2,213.2l3.3-0.7c0.6-0.1,1.2,0.3,1.4,0.9l0,0c0.1,0.6-0.3,1.2-0.9,1.4l-3.3,0.7
			c-0.5,0.1-0.9-0.2-1.1-0.7l-0.1-0.5C434.4,213.8,434.7,213.3,435.2,213.2z"/>
		<path class="st23" d="M438.5,212.5c2.7-0.6,2.9-1.4,5.1-1.9s2.5-0.3,2.9,1.6c0.3,1.3-8.1,2.6-8.1,2.6L438.5,212.5z"/>
		<path class="st23" d="M446.6,214.6l0.1,0.2c0.3,1.4-0.6,2.8-2,3.1l-3.3,0.7c-1.4,0.3-2.8-0.6-3.1-2l-0.1-0.2
			c-0.3-1.4,0.6-2.8,2-3.1l3.3-0.7C444.9,212.3,446.3,213.2,446.6,214.6z"/>
		<path class="st23" d="M439.3,218l1.1,3.3c0.1,0.2,0.4,0.3,0.7,0.3l6.1-1.3c2.2-0.5,3.6-2.6,3.1-4.8l0,0c-0.1-0.3-0.4-0.6-0.8-0.5
			L440,217C439.5,217.1,439.1,217.6,439.3,218z"/>
		<path class="st23" d="M439.9,213.4L439.9,213.4c0.1,0.6-0.3,1.2-0.9,1.4l-6.8,1.5c-0.6,0.1-1.2-0.2-1.3-0.8l0-0.1
			c-0.1-0.6,0.2-1.2,0.8-1.3l6.8-1.5C439.1,212.4,439.7,212.8,439.9,213.4z"/>
		<path class="st23" d="M440.1,215.9L440.1,215.9c0.1,0.6-0.3,1.2-0.9,1.4l-8.5,1.9c-0.6,0.1-1.2-0.3-1.4-0.9l0,0
			c-0.1-0.6,0.3-1.2,0.9-1.4l8.5-1.9C439.4,214.8,440,215.2,440.1,215.9z"/>
		<path class="st23" d="M441.5,218.1L441.5,218.1c0.1,0.6-0.3,1.2-0.9,1.4l-7.9,1.7c-0.6,0.1-1.2-0.3-1.4-0.9l0,0
			c-0.1-0.6,0.3-1.2,0.9-1.4l7.9-1.7C440.8,217.1,441.4,217.5,441.5,218.1z"/>
		<path class="st23" d="M442.3,220.3L442.3,220.3c0.1,0.5-0.2,1-0.7,1.2l-5.5,1.2c-0.5,0.1-1-0.2-1.2-0.7v0c-0.1-0.5,0.2-1,0.7-1.2
			l5.5-1.2C441.6,219.4,442.2,219.7,442.3,220.3z"/>
	</g>
	<g>
		<path class="st23" d="M415.1,220.1l-2.7-0.6c-0.5-0.1-1.1,0.2-1.2,0.8c-0.1,0.5,0.2,1,0.7,1.1l2.7,0.6c0.5,0.1,1.2-0.1,1.3-0.6
			l0-0.2C416.1,220.7,415.6,220.2,415.1,220.1z"/>
		<path class="st23" d="M417.5,218.1l-4.1-0.9c-0.6-0.1-1.2,0.3-1.4,0.9l0,0c-0.1,0.6,0.3,1.2,0.9,1.4l4.1,0.9
			c0.5,0.1,0.9-0.2,1.1-0.7l0.1-0.5C418.3,218.7,418,218.2,417.5,218.1z"/>
		<path class="st23" d="M418.7,215.8l-3.9-0.8c-0.6-0.1-1.2,0.2-1.4,0.8c-0.2,0.6,0.2,1.3,0.9,1.4l3.9,0.8c0.5,0.1,0.9-0.2,1.1-0.7
			l0.1-0.5C419.4,216.4,419.1,215.9,418.7,215.8z"/>
		<path class="st23" d="M418.3,213.2l-3.3-0.7c-0.6-0.1-1.2,0.3-1.4,0.9l0,0c-0.1,0.6,0.3,1.2,0.9,1.4l3.3,0.7
			c0.5,0.1,0.9-0.2,1.1-0.7l0.1-0.5C419.1,213.8,418.8,213.3,418.3,213.2z"/>
		<path class="st23" d="M415.1,212.5c-2.7-0.6-2.9-1.4-5.1-1.9c-2.2-0.4-2.5-0.3-2.9,1.6c-0.3,1.3,8.1,2.6,8.1,2.6L415.1,212.5z"/>
		<path class="st23" d="M407,214.6l-0.1,0.2c-0.3,1.4,0.6,2.8,2,3.1l3.3,0.7c1.4,0.3,2.8-0.6,3.1-2l0.1-0.2c0.3-1.4-0.6-2.8-2-3.1
			l-3.3-0.7C408.7,212.3,407.3,213.2,407,214.6z"/>
		<path class="st23" d="M414.2,218l-1.1,3.3c-0.1,0.2-0.4,0.3-0.7,0.3l-6.1-1.3c-2.2-0.5-3.6-2.6-3.1-4.8l0,0
			c0.1-0.3,0.4-0.6,0.8-0.5l9.5,2.1C414,217.1,414.5,217.6,414.2,218z"/>
		<path class="st23" d="M413.7,213.4L413.7,213.4c-0.1,0.6,0.3,1.2,0.9,1.4l6.8,1.5c0.6,0.1,1.2-0.2,1.3-0.8l0-0.1
			c0.1-0.6-0.2-1.2-0.8-1.3l-6.8-1.5C414.4,212.4,413.8,212.8,413.7,213.4z"/>
		<path class="st23" d="M413.4,215.9L413.4,215.9c-0.1,0.6,0.3,1.2,0.9,1.4l8.5,1.9c0.6,0.1,1.2-0.3,1.4-0.9l0,0
			c0.1-0.6-0.3-1.2-0.9-1.4l-8.5-1.9C414.2,214.8,413.5,215.2,413.4,215.9z"/>
		<path class="st23" d="M412,218.1L412,218.1c-0.1,0.6,0.3,1.2,0.9,1.4l7.9,1.7c0.6,0.1,1.2-0.3,1.4-0.9l0,0
			c0.1-0.6-0.3-1.2-0.9-1.4l-7.9-1.7C412.8,217.1,412.2,217.5,412,218.1z"/>
		<path class="st23" d="M411.3,220.3L411.3,220.3c-0.1,0.5,0.2,1,0.7,1.2l5.5,1.2c0.5,0.1,1-0.2,1.2-0.7v0c0.1-0.5-0.2-1-0.7-1.2
			l-5.5-1.2C411.9,219.4,411.4,219.7,411.3,220.3z"/>
	</g>
	<g>
		<g>
			<path class="st22" d="M189.8,385.2c0-10.5,0.6-15-0.6-21.6c-1.2-6.5-5.5-20.3-4.8-28s1.5-29.7,1.8-32.9
				c0.3-3.2,12.7-3.1,12.7-3.1s0.2,42.9-1.1,60.3c-1.2,17.4-1.6,25-1.6,25L189.8,385.2z"/>
		</g>
		<g>
			<path class="st22" d="M166.9,387.9c0-10.5,0.6-15-0.6-21.6c-1.2-6.5-5.5-20.3-4.8-28c0.7-7.7,1.5-29.7,1.8-32.9
				c0.3-3.2,12.7-3.1,12.7-3.1s0.2,42.9-1.1,60.3c-1.2,17.4-1.6,25-1.6,25L166.9,387.9z"/>
			<g>
				<path class="st24" d="M166.9,385.4c1.2,1.9,4.6,1.9,4.6,1.9l1.8-0.3c0.4,1.8,2.7,3.2,5.9,4.7c1.1,0.5,4.7,1.5,5.1,4.2
					c0.1,0.7-4,1.3-7.3,0.8s-7.1-3.2-7.1-3.2l-0.1,1.5l-4.9-0.5c0,0,0-5.3,0.4-7C165.6,385.7,166.9,385.4,166.9,385.4z"/>
			</g>
			<g>
				<path class="st24" d="M189.8,382.7c1.2,1.9,4.6,1.9,4.6,1.9l1.8-0.3c0.4,1.8,2.7,3.2,5.9,4.7c1.1,0.5,4.7,1.5,5.1,4.2
					c0.1,0.7-4,1.3-7.3,0.8c-3.4-0.5-7.1-3.2-7.1-3.2l-0.1,1.5l-4.9-0.5c0,0,0-5.3,0.4-7C188.6,383,189.8,382.7,189.8,382.7z"/>
			</g>
		</g>
		<path class="st8" d="M210.8,240.2c0.3,14.2-3.4,14.2-5.4,52.1c-2,37.9-0.7,73.3-0.7,73.3h-51.1c0,0,7.7-31.3,3.9-53.9
			c-3.8-22.6-4.8-55.3-3.1-68.8S210.8,240.2,210.8,240.2z"/>
	</g>
	<g>
		<path class="st22" d="M186.2,157.5c-2,5.4-2.3,11,3.2,13.9s7.8,3.2,7.8,3.2v9.9h-32.3v-10.8c0,0,8-6.2,7.9-12.7s0-8.8,0-8.8
			L186.2,157.5z"/>
		<path class="st7" d="M164.9,173.7c0,0,1.6-1.2,3.3-3.1c7.4,3.3,15.2,2.1,20.2,0.2c0.3,0.2,0.7,0.4,1.1,0.6
			c5.6,2.9,7.8,3.2,7.8,3.2l-1.2,67.7h-31.1V173.7z"/>
		<path class="st5" d="M192.1,172.8c0,0-1.2,5.1-4.4,9c2,20.9,3.2,73.1,4.4,80.2c6.6,7.3,22.4,8.7,24.6,8.5
			c-0.9-10.2-3.6-30.5-3.6-43.1s-0.5-43-2.3-46.1C209,178.2,204,174.6,192.1,172.8z"/>
		<path class="st5" d="M166.9,171.8c3.1,5.8,7,10.8,7,10.8s-2.5,71.4-1.6,76.9c0.9,5.5-5.6,2.9-13.6,4.4c-8,1.5-13.4,0-13.4,0
			s6.9-21.3,6.5-39.6s2.4-47,4-48.8C158.7,172.2,166.9,171.8,166.9,171.8z"/>
	</g>
	<g>
		<path class="st25" d="M306.5,143.2c0.1,0.7,0.3,1.6,1.2,2c0.8,0.3,1.8-0.1,2.3-0.7c0.5-0.6,0.6-1.3,0.7-2.1c0.2-2,0.5-4.1,1.5-6
			c0.5-1.1,3-6.1-0.8-5.5c-1.1,0.2-2,1.4-2.7,2.7c-1,1.8-1.6,3.8-1.8,5.8L306.5,143.2z"/>
		<path class="st22" d="M307.7,143.3c0-2.9,1.3-5.3,2.4-8c1.2-2.7,3.3-5,6-6c3.6-1.3,7.5,0,11.1,1.2l7.7,1.7
			c1.9,3.7,2.4,7.9,2.4,12.1c0,0,0,0,0,0c0.9-0.1,1.8,0,2.4,0.7c0.6,0.6,0.8,1.4,0.9,2.2c0.1,1,0.1,2.1,0,3.1c-0.1,1-0.3,2.1-1,3
			c-0.9,1.1-2.4,1.6-3.8,1.7c-0.5,1.3-1.1,2.6-1.9,4.2c-1.7,3.4-8.3,6.5-12,7.2c-4,0.8-4.2,0.7-7-2.3c-2.8-2.9-5.9-6.6-6.9-10.5
			C306.9,149.1,307.7,146.5,307.7,143.3z"/>
		<path class="st26" d="M338.7,137.2c0.1,2.3,0,4.5-0.3,6.8c-0.1,0.6-0.2,1.2-0.6,1.7c0,0,0,0,0,0c-0.6,0.7-2.1,0.6-2.5-0.3
			c-0.2-0.4-0.3-0.8-0.5-1.2c-0.5-1.9-0.2-3.8-0.2-5.6c0-0.9,0-1.8-0.2-2.6c-0.2-0.7-0.7-2.7-0.6-3.3c0.2-1.2,1.8-0.2,3,0.5
			C338.3,133.9,338.6,135.9,338.7,137.2"/>
		<path class="st26" d="M325.5,135.6c-4.8,1-10,1.6-14.4-0.8c-2-1.1-3.7-2.7-5.7-3.7c-0.4-0.2-0.3-0.8,0.1-0.9
			c0.7-0.1,1.4-0.3,2-0.6c1.7-0.8,2.9-2.3,4.4-3.4c3.2-2.5,7.3-3.3,11-2.2c1.4,0.4,2.7,1.1,4.1,1.7c1.6,0.7,3.3,1.4,5,1.9
			c1.2,0.4,2.4,0.7,3.5,1.4c1.4,0.9,2.4,2.5,2.8,4.2c0.1,0.6,0.5,2.2,0.2,2.8c-0.5,0.8-1,0.2-1.7-0.2
			C333.2,134,329.3,134.8,325.5,135.6"/>
	</g>
	<g>
		<path class="st27" d="M189.7,171.3c-1.2,4-5.6,7.2-10.9,7.2c-5.6,0-10.2-3.4-11.1-7.7"/>
		<path class="st12" d="M183.4,186.1l-3.4,0.5c-0.3,0-0.5-0.2-0.5-0.4l-0.5-7.8c0-0.2,0.2-0.5,0.4-0.5l2.1-0.3
			c0.2,0,0.5,0.1,0.5,0.4l1.7,7.7C183.9,185.8,183.7,186.1,183.4,186.1z"/>
	</g>
	<path class="st5" d="M137,220.2c-2.9-1.4-4.2-4.9-2.8-7.8c5.1-10.6,18.7-33.1,20.3-35.6c4.6-6.9,19.9-2.6,13.1,10.5
		c-6,11.8-16.3,20.6-22.3,30.6C144,220.4,139.6,221.4,137,220.2L137,220.2z"/>
	<polygon class="st19" points="162.9,254.7 138.3,239.5 155.8,199.7 184.4,210.6 	"/>
	<g>
		<path class="st22" d="M157.7,227.9l6.7,7.2c0,0,4.9-0.3,6,1.5c0.1,0.6-0.6,0.7-1.7,1.3c-0.1,0.1-0.2,0.5-0.1,0.5
			c1.4,1.5,4.4,1.5,4.1,2.6c-0.4,1.7-3.9,5.1-6.2,4.9c-3.3-1-3.6-1.9-7.4-5.5c-3-2.9-8-7.2-8-7.2L157.7,227.9z"/>
		<g>
			<path class="st5" d="M165.3,234.3l-7,7.2l-22.8-21.7c-2.6-2.5-2.5-6.7,0.1-9.4l0,0c2.8-2.9,7.3-2.9,9.7,0L165.3,234.3z"/>
		</g>
	</g>
	<path class="st5" d="M225,223c-2.6,1.9-6.3,1.4-8.2-1.2c-7-9.5-19.2-30.3-20.6-32.9c-4-7.3,7-18.8,15.4-6.7
		c7.6,10.8,14.2,24.6,15.4,32.4C227.4,217.2,227.3,221.3,225,223L225,223z"/>
	<g>
		<path class="st22" d="M240.8,207.2c0.1-0.9,0.7-1.6,1.5-2c1.9-1,5.6-2.9,7.1-3.5c2.1-0.8,4.5-2.7,7.5-4.1c3.1-1.5,4.1-0.3,3.8,0.6
			c-0.4,1.1-3.9,2.5-3.9,2.5s-0.4,0.6,1.6,0.1l2-0.5c0.9-0.4,2.1-1.6,2.1-1.7c0.3-0.4,0.5-0.9,0.8-1.4c1.5-2.8,2.7-3.8,2.9-2.3
			c0.2,1.6-0.9,4.2-0.9,4.2c-0.9,1.9-1,2.5-3.5,4.7c-1.3,1.1-16.7,8.7-16.7,8.7C241.2,213.6,240.8,207.2,240.8,207.2z"/>
		<g>
			<path class="st5" d="M249,200.8l5,8.7l-27.1,15.9c-3.1,1.8-7.1,0.6-9-2.7l0,0c-2-3.5-0.7-7.8,2.7-9.4L249,200.8z"/>
		</g>
	</g>
	<g>
		<path class="st24" d="M169.7,127.6c4.6-3.2,5.1-7.7,3.1-10.7c-2.1-3-7.6-5-10.5-1.2c-2.9,3.8-4.3,5.6-6.1,8.4
			c-1.8,2.8,2.8,11.4,7.5,8.3C168.5,129.4,169.7,127.6,169.7,127.6z"/>
		<g>
			<path class="st24" d="M194.5,139.4c0.3,4.3-0.5,8.6-2.4,12.5c0-4-0.2-8.1-1.3-11.9c-1.1-3.9-3.1-7.5-6.1-10.2
				c0.4,0.3,3.5-0.8,4.4-0.6c1.1,0.3,2,1.1,2.7,2.1C193.6,133.6,194.3,136.6,194.5,139.4z"/>
		</g>
		<path class="st22" d="M170.8,128.5c10.9-4.7,21.9,3.6,21.9,16.3c0,12.6-1.5,14.3-6.3,18c-3.6,1.3-9.5,4.1-18.7-2.8
			C158.6,153.2,157.7,134.2,170.8,128.5z"/>
		<path class="st22" d="M175.4,126c-0.4-1.7-2.5-3.4-4.3-2.7c-2.6,1-5.3,2.2-7.2,4.3c-1.6,1.7-1.5,4.5,0.4,5.7
			c0.8,1.8,3.2,2.4,4.9,1.5c1.4-0.7,2.1-2.2,1.9-3.7c0.3-0.1,0.6-0.3,0.8-0.4c0.1-0.1,1.4-0.6,0.8-0.4
			C174.5,129.7,175.9,128.1,175.4,126"/>
		<g>
			<path class="st24" d="M180.7,132c2.1-0.2,4.1-0.1,6.2-0.5c2-0.4,4-2,5.2-3.9c-6.2-0.9-13-4.8-19.1-3.9c-4.9,0.7-10.4,8-12.6,13
				c-2.2,4.9-4.8,17.2,9.9,25c-2.7-4.3-3.1-10.3-2.7-13.7c0.3-2.7-0.5-7.4,1.1-9.3C172.6,134.3,175.2,132.6,180.7,132z"/>
		</g>
		<path class="st22" d="M169.7,151c-5.9,1-5.8-4.3-5.2-5.3c1.1-1.8,3.3-0.6,3.3-0.6"/>
	</g>
	<g>
		<path class="st28" d="M583.9,188c0,0,10.4-13.7,11.7-14.7c2.7-2,3.3-2,5.3-2.5c0,0,2.8-0.6,4.3-0.1s0.3,1.4-2.8,2.4
			c-0.6,0.2-1.1,0.4-1.6,0.5c-0.1,0.1-1.5,0.9-2.1,1.8l-0.9,1.9c-0.9,1.8-0.2,1.6-0.2,1.6s2-3.2,3.2-3.3c0.9-0.1,1.9,1.1-0.2,3.8
			c-2,2.7-4.3,4.6-5.5,6.6c-0.9,1.4-3.5,4.6-4.8,6.3c-0.6,0.7-1.4,1.1-2.3,1C588,193.2,581.8,191.6,583.9,188z"/>
		<g>
			<path class="st20" d="M597.6,187.9l-10.4-9.1l-19.7,24.5c-2.4,2.7-2,6.9,0.9,9.3l0,0c3,2.6,7.5,2.2,9.7-0.8L597.6,187.9z"/>
		</g>
	</g>
	<path class="st20" d="M575.4,213.8c-2.6,1.9-6.3,1.4-8.2-1.2c-7-9.5-19.2-30.3-20.6-32.9c-4-7.3,7-18.8,15.4-6.7
		c7.6,10.8,14.2,24.6,15.4,32.4C577.8,208.1,577.7,212.1,575.4,213.8L575.4,213.8z"/>
	<path class="st28" d="M545.8,152.8c-2,5.4-2.3,11,3.2,13.9s7.8,3.2,7.8,3.2v9.9h-32.3v-10.8c0,0,8-6.2,7.9-12.7s0-8.8,0-8.8
		L545.8,152.8z"/>
	<path class="st20" d="M548,166.1c-5,1.9-12.8,3-20.2-0.2c-10.7,1.9-16.8,5.3-16.8,5.3l-1,1c-0.7,0.7-1.1,1.6-1.1,2.6l-0.3,10.8
		c-0.1,3,3.3,5,5.8,3.4c0,0,0.1,0,0.1,0l4.7,46.9h39l4.5-45.2l-4.5-21.3C559.2,168.1,548.3,166.3,548,166.1z"/>
	<path class="st24" d="M554.5,387c1.5,1.5,4.5,0.8,4.5,0.8l1.6-0.7c0.7,1.6,3,2.4,6.2,3.1c1.1,0.2,4.5,0.5,5.4,2.8
		c0.2,0.6-1.4,1.6-5.5,1.3c-1.1-0.1-7.9-0.8-7.9-0.8l-0.1,0.8l-4.9-0.3c0,0-0.3-3.4-0.3-5S554.5,387,554.5,387z"/>
	<path class="st24" d="M517.2,390.7c1.5,1.5,4.5,0.8,4.5,0.8l1.6-0.7c0.7,1.6,3,2.4,6.2,3.1c1.1,0.2,4.5,0.5,5.4,2.8
		c0.2,0.6-1.4,1.6-5.5,1.3c-1.1-0.1-7.9-0.8-7.9-0.8l-0.1,0.8l-4.9-0.3c0,0-0.3-3.4-0.3-5C516.1,391.1,517.2,390.7,517.2,390.7z"/>
	<path class="st22" d="M532.3,228.8l14.7,78.5c0.1,0.7,0.2,1.4,0.3,2.1l6.5,78.3c0,0,2.6,0.8,3.4,0.8c2.8,0.2,3.3-0.8,3.3-0.8
		s7.2-54.7,9.5-81.1s-11-77-11-77L532.3,228.8z"/>
	<path class="st29" d="M547.3,309.1c0-0.5-0.1-1-0.2-1.5l-14.8-78.8l10.3,0.8c2.9,16,9.2,51.8,9.6,68.2c0.5,21.5-0.2,32.9-0.1,44.1
		c0.1,7.4,1.3,23.7,0.6,32.7L547.3,309.1z"/>
	<path class="st22" d="M521.3,229.4c-14.7,11.3-2.9,58.7,0.7,71.8c0.6,2,0.4,4.1-0.5,6c-1.5,3.1-3.5,8.8-3.1,16.6
		c0.9,17.4-2.2,67.4-2.2,67.4c0.7,2.3,7.1,0.1,7.1,0.1l18.5-77.9l10-83.1L521.3,229.4z"/>
	<path class="st0" d="M559,231.6h-40.4c-0.7,0-1.3-0.6-1.3-1.3v-3.2c0-0.7,0.6-1.3,1.3-1.3H559c0.7,0,1.3,0.6,1.3,1.3v3.2
		C560.4,231,559.8,231.6,559,231.6z"/>
	<path class="st20" d="M497.8,217.7c-3.1-1-4.8-4.3-3.8-7.4c3.6-11.2,13.4-33.2,14.7-36c3.6-7.5,19.3-5.3,14.4,8.6
		c-4.4,12.5-11.7,25.9-17.3,31.4C503.9,216.3,500.5,218.6,497.8,217.7L497.8,217.7z"/>
	<path class="st29" d="M531.3,233.8c-8.2,5-11.8,12.7-12.1,14.6l9.9,1.5l3.5-10.8L531.3,233.8z"/>
	<g>
		<path class="st28" d="M517.9,225.5c0.9-0.1,1.7,0.2,2.3,0.8c1.5,1.5,4.4,4.5,5.5,5.8c1.4,1.8,3.9,3.5,6.2,6
			c2.3,2.5,1.5,3.8,0.6,3.8c-1.1-0.1-3.5-3-3.5-3s-0.7-0.2,0.4,1.5l1.1,1.8c0.7,0.8,2.2,1.5,2.3,1.5c0.5,0.1,1,0.2,1.6,0.4
			c3.1,0.6,4.5,1.4,3,2.1s-4.3,0.3-4.3,0.3c-2.1-0.3-2.7-0.2-5.6-2c-1.4-0.9-13.2-13.4-13.2-13.4
			C511.9,227.8,517.9,225.5,517.9,225.5z"/>
		<g>
			<path class="st20" d="M526.6,231.5l-8.2,8.8l-21.9-22.6c-2.6-2.4-2.7-6.6-0.1-9.4l0,0c2.7-2.9,7.2-3,9.7-0.2L526.6,231.5z"/>
		</g>
	</g>
	<path class="st22" d="M531.3,233.8c-3.3,7.5-12.1,14.6-12.1,14.6l6,15l19.1-13.5L531.3,233.8z"/>
	<g>
		<path class="st5" d="M551.2,143.4C551.2,143.4,551.2,143.4,551.2,143.4C551.2,143.4,551.2,143.3,551.2,143.4
			C551.2,143.3,551.2,143.3,551.2,143.4C551.2,143.4,551.2,143.4,551.2,143.4z"/>
		<path class="st5" d="M551.2,143.4c-0.1,0-0.2,0.1-0.1,0.1C551.1,143.5,551.1,143.4,551.2,143.4
			C551.2,143.4,551.2,143.4,551.2,143.4z"/>
		<path class="st5" d="M551.2,143.4C551.2,143.3,551.2,143.3,551.2,143.4C551.2,143.3,551.2,143.4,551.2,143.4
			C551.2,143.4,551.2,143.4,551.2,143.4C551.2,143.4,551.2,143.4,551.2,143.4z"/>
		<path class="st5" d="M550.8,143.6C550.8,143.6,550.8,143.6,550.8,143.6C550.8,143.6,550.8,143.6,550.8,143.6
			C550.8,143.6,550.8,143.6,550.8,143.6z"/>
		<path class="st5" d="M551.2,143.4C551.2,143.4,551.2,143.4,551.2,143.4C551.2,143.4,551.2,143.4,551.2,143.4
			C551.2,143.4,551.2,143.4,551.2,143.4C551.2,143.4,551.2,143.4,551.2,143.4z"/>
		<path class="st5" d="M559.1,134.5C559.1,134.5,559.1,134.5,559.1,134.5C559.1,134.5,559.1,134.5,559.1,134.5
			C559.1,134.5,559.1,134.5,559.1,134.5C559.1,134.5,559.1,134.5,559.1,134.5C559.1,134.5,559.1,134.5,559.1,134.5z"/>
		<path class="st5" d="M562.3,127.7c-0.8-1.5-2.1-2.5-3.8-2.9c0,0-0.1,0-0.1,0c0,0,0,0,0-0.1c-0.2-0.7-0.3-1.4-0.6-2.1
			c-1.1-2.5-3.6-3.1-5.9-3.9c-0.1,0-0.3-0.2-0.4-0.2c-0.1-0.1-0.2-0.1-0.3-0.2c0,0,0,0,0,0c0,0,0,0,0,0c0,0,0-0.1-0.1-0.1
			c0,0,0,0,0,0c0-0.1-0.1-0.5-0.1-0.6c0-0.1,0-0.4-0.1-0.5c-0.1-0.8-0.2-1.6-0.7-2.4c-1.7-2.8-6.3-4.1-9.2-2.4
			c-0.7,0.4-1.3,1-1.7,1.7c-0.1,0.2-0.2,0.4-0.3,0.6c-0.4-0.1-0.7-0.2-1.2-0.2c-1.4-0.1-2.6,0.5-3.7,1.3c-0.2,0.1-0.4,0.3-0.6,0.4
			c-0.1,0.1-0.2,0.1-0.3,0.2c-0.1,0-0.1,0-0.2,0.1c0,0,0,0,0,0c0,0,0,0,0,0c0,0,0,0-0.1,0c0,0,0,0,0,0c0,0,0,0,0,0c0,0,0,0,0,0
			c0,0,0,0,0,0c-0.1,0,0,0,0-0.1c-0.2-0.1-0.5-0.2-0.2,0c-0.1,0-0.1-0.1-0.2-0.1c0,0,0,0,0,0c0,0-0.1,0-0.1-0.1
			c-0.2-0.2,0,0,0.1,0.1c0,0,0,0-0.1-0.1c-0.1-0.1-0.4-0.4-0.3-0.3c-0.3-0.4-0.6-0.9-0.9-1.3c-1-1.3-2.1-2.3-3.7-2.8
			c-5.3-1.9-8.3,3.9-9.6,8.1c-0.3,0.9-0.5,1.8-0.7,2.7c-0.1,0-0.3,0.1-0.4,0.1c-0.3,0-0.6,0-0.8,0.1c-0.9,0.1-1.8,0.2-2.7,0.7
			c-1.4,0.7-2.2,2.1-2.3,3.6c-0.1,1.1,0.2,2.7,0.8,3.7c-0.3,0.5-0.5,1.1-0.7,1.7c-0.4,1.7-0.3,3.5,0.6,5c0.8,1.3,1.9,2.2,3.1,3.1
			c-1,1.1-1.6,2.5-1.5,3.9c0.1,1.9,1.3,3.5,3,4.4c1,0.5,2.3,0.7,3.3,1c-0.6,1.8-0.2,3.7,1.4,4.8c1,0.7,2,0.9,3.1,0.8
			c0.1,0.5,0.3,1,0.7,1.4c1.5,1.9,4,1.8,6,0.8c1.4-0.7,2.4-1.8,3.7-2.5c1.2-0.7,1.6-2.3,0.9-3.5c-0.7-1.2-2.3-1.6-3.5-0.9
			c-0.3,0.2-0.7,0.4-1,0.6c0,0,0,0,0,0c-0.1,0-0.1,0-0.2,0c-0.3-0.3-0.8-0.8-0.9-0.8c-0.5-0.3-1-0.6-1.5-0.7
			c-0.4-0.1-0.7-0.1-1.1-0.1c-0.4-2.4-0.4-4.7-0.2-6.4c0.3-2.7-0.5-7.4,1.1-9.3c3.9-4.4,6.5-6.1,12-6.6c2.1-0.2,4.1-0.1,6.2-0.5
			c0.8-0.2,1.6-0.5,2.3-1c0.1,0.2,0.2,0.4,0.3,0.6c0.6,1.3,1.3,2.5,2.3,3.5c0.1,0.1,0.3,0.3,0.5,0.4c0,0.1,0.1,0.3,0.1,0.4
			c0,0.1,0,0.1,0,0.1c0,0.1,0,0.1,0,0.2c0.1,0.4,0.1,0.4,0,0.3c0-0.1,0-0.1,0,0c0,0.4,0.1,0.8,0.1,1.2c0,0.7,0.1,1.4,0.2,2
			c0.1,0.6,0.1,1.5,0.3,2.4c0.1,0.4,0.3,0.7,0.6,1c-0.7,0.5-1.2,1.2-1.5,2.1c-0.2,0.7-0.3,1.5-0.4,2.2c0,0.3,0,0.6-0.1,1
			c0,0,0,0.1-0.1,0.1c0,0,0,0,0,0c0,0,0,0,0,0c0,0,0,0,0,0c0,0,0,0,0,0c0,0,0.1-0.1,0.1-0.1c0,0-0.1,0.1-0.1,0.1c0,0,0,0,0,0
			c0,0,0,0,0,0c0,0,0,0,0,0c0,0.1,0,0,0,0c0,0,0,0,0,0c0,0,0,0,0,0c0,0,0,0,0,0c0,0,0,0,0,0c0,0,0,0,0,0c0,0,0,0,0,0
			c0,0-0.1,0-0.1,0c-0.1,0-0.1,0.1-0.2,0.1c0,0,0,0-0.1,0c0,0,0.1,0,0.1,0c0,0-0.1,0-0.1,0c-0.1,0-0.2,0.1-0.1,0c0,0-0.1,0-0.1,0
			c-0.3,0.1-0.6,0.2-0.9,0.2c-0.2,0-0.4,0.1-0.6,0.1c0.1,0-0.4,0.1-0.5,0.1c-0.7,0.1-1.4,0.2-2.1,0.3c-2.7,0.5-2.1,5.2,0.7,4.9
			c2.6-0.3,5.6-0.3,7.6-2.3c1.2-1.2,1.6-2.8,1.7-4.5c0-0.1,0.1-0.8,0-0.6c0,0,0-0.1,0-0.1c0.1-0.1,0.3-0.1,0.4-0.2
			c1.4-0.6,2.9-1.4,3.4-3c0.3-1.2-0.1-2.3-0.8-3.4c-0.1-0.1-0.2-0.3-0.3-0.4c0,0,0,0,0-0.1c0,0,0,0,0,0c0.1-0.1,0.2-0.1,0.2-0.2
			c0.2-0.1,0.4-0.3,0.6-0.4c0.9-0.6,1.8-1.2,2.4-2.2C563.1,130.6,563,129,562.3,127.7z"/>
		<polygon class="st5" points="551.2,143.4 551.2,143.4 551.2,143.4 551.2,143.4 		"/>
		<path class="st5" d="M532.9,116.2C532.9,116.2,532.9,116.2,532.9,116.2C532.9,116.2,532.9,116.2,532.9,116.2
			C532.9,116.2,532.9,116.2,532.9,116.2z"/>
		<path class="st5" d="M533,116.1C533,116.1,533,116.1,533,116.1C533.2,116.1,533.1,116.1,533,116.1z"/>
		<path class="st5" d="M551.2,143.4C551.2,143.4,551.2,143.4,551.2,143.4C551.2,143.4,551.2,143.4,551.2,143.4
			C551.2,143.4,551.2,143.4,551.2,143.4z"/>
		<polygon class="st5" points="532.6,116 532.6,116 532.6,116 		"/>
		<path class="st5" d="M551.3,143.3C551.3,143.3,551.3,143.3,551.3,143.3C551.2,143.3,551.3,143.3,551.3,143.3
			C551.3,143.3,551.3,143.3,551.3,143.3z"/>
	</g>
	<g>
		<path class="st5" d="M554.1,134.7c0.3,4.3-0.5,8.6-2.4,12.5c0-4-0.2-8.1-1.3-11.9c-1.1-3.9-3.1-7.5-6.1-10.2
			c0.4,0.3,3.5-0.8,4.4-0.6c1.1,0.3,2,1.1,2.7,2.1C553.2,128.9,554,131.9,554.1,134.7z"/>
	</g>
	<path class="st28" d="M530.5,123.8c10.9-4.7,21.9,3.6,21.9,16.3c0,12.6-3,18.2-6.2,19.8c-3.6,1.3-9.6,2.3-18.8-4.6
		C518.2,148.5,517.4,129.5,530.5,123.8z"/>
	<path class="st5" d="M553.9,126.2c-0.7-0.2-1.6-0.1-2.2-0.2c0,0,0,0-0.1,0c-0.5-0.4-0.9-0.9-1.3-1.4c-0.1-0.3-0.2-0.6-0.3-0.9
		c-0.3-0.7-0.7-1.2-1.3-1.4c0.7-0.6,1.1-1.4,1-2.3c-0.3-3.6-2.4-6.2-5.8-7.4c-0.7-0.2-1.4-0.4-2.2-0.6c-0.1,0-0.1-0.1-0.2-0.1
		c-0.1,0-0.2-0.1-0.2-0.1c0,0-0.1-0.1-0.1-0.1c-0.1-0.1-0.1-0.1-0.1-0.1c-0.1-0.2-0.2-0.3-0.4-0.5c-0.1-0.2-0.3-0.4-0.5-0.5
		c-0.8-0.8-1.9-1.2-3-1.2c-0.7,0-1.3,0.1-1.8,0.3c-1.3-1.1-2.9-1.9-4.7-2c-2.2-0.1-3.7,1-5,2.7c-0.5,0.7-1,1.5-1.2,2.4
		c-0.1,0.3-0.1,0.5-0.2,0.8c-0.4,1-0.4,2.2-0.1,3.3c0.3,0.9,1,1.8,1.9,2.2c0.6,0.4,1.3,0.6,2,0.5c0.7-0.1,1.3-0.4,1.8-1
		c1,0.4,2.1,0.1,3-0.4c0.5,0.2,1,0.4,1.4,0.6c1.1,0.4,2.4,0.6,3.6,0.6c0.9,0,1.7-0.4,2.2-1c0.2,0.1,0.4,0.1,0.5,0.1
		c0.3,0.1,0.6,0.1,0.8,0.2c0.1,0,0.7,0.3,0.4,0.1c0.1,0.1,0.3,0.1,0.4,0.2c0.1,0.1,0.2,0.1,0.3,0.2c0,0,0.1,0.1,0.1,0.1
		c0,0,0,0,0,0.1c0,0.1,0.1,0.1,0.1,0.2c0,0,0,0.1,0.1,0.1c0,0,0,0.1,0,0.1c0,0.1,0.1,0.2,0.1,0.3c0,0.2,0,0.3,0.1,0.5
		c-1.5-0.9-3.6-0.9-5.3-0.4c-1.5,0.4-2.8,1.1-4.2,1.8c-2.4-0.7-4.8-0.3-7.1,0.5c-1-0.6-2.4-0.4-3.3,0.9c-0.1,0.1-0.2,0.3-0.3,0.4
		c-0.2,0.3-0.4,0.5-0.7,0.9c-0.7,0.9-1,2-0.4,2.9c0,0.3,0,0.5-0.1,0.8c0,0.4,0,0.8,0,1.2c-0.3-0.1-0.6-0.2-1-0.2
		c-1.5,0-2.4,1.2-2.5,2.5c-0.1,1.3,0.3,2.5,1.2,3.4c0,0.2,0.1,0.3,0.1,0.5c-1.3-0.1-2.5,1.2-2.6,2.6c-0.1,1.8-0.1,3.7,0.6,5.4
		c0.3,0.8,0.7,1.6,1.2,2.3c0.3,0.4,0.6,0.7,0.9,1.1c-0.1-0.1-0.2-0.3,0.1,0.1c0.1,0.2,0.2,0.3,0.3,0.5c0.1,0.1,0.2,0.3,0.2,0.4
		c0,0,0,0,0,0c0,0,0,0.1,0,0.2c0,0.1,0,0.4,0,0.2c-0.1,0.2-0.3,0.9-0.3,1.3c-0.3,1.8,0.1,3.7,1.9,3.9c8.7,1.1,7.1-6.9,6.8-7.6
		c-0.1-0.3-0.2-0.5-0.4-0.8c-0.1-0.1-0.1-0.2-0.2-0.4c0.3,0.6,0,0,0-0.1c0-0.1-0.1-0.4-0.1-0.4c0,0,0-0.1,0-0.2
		c0-0.2,0.1-0.4,0.2-0.5c0,0.1-0.9-1.8-0.8-1.9c0.2-0.5,0.5-1,0.6-1.5c0.3-0.8,0.2-1.7-0.1-2.5c-0.2-0.5-0.5-1.1-0.7-1.4
		c0.1-0.1,1.3,1,1.3,1c0.5-0.6,1.1-1.1,1.5-1.8c0.8-1.5,0.3-2.7-0.2-4.2c0,0,0-0.1,0-0.1c0,0,0.1,0,0.1,0c1.4,0.4,2.7,0.4,4.2,0.2
		c1.9-0.3,3.6-1.5,3.7-3.6c0-0.3,0-0.6,0-0.9c0.5,0.8,1.1,1.5,1.9,2c1.2,0.6,2.2,0.4,3.5,0.3c-0.2,0-0.2,0,0,0c0,0,0.3,0.1,0.4,0.1
		c0,0,0,0,0.1,0c0,0,0.1,0,0.1,0.1c0.2,0.1,0.4,0.2,0.7,0.3c1.3,0.6,2.9,0.8,4.2,0.2c0.2,0.2,0.4,0.3,0.6,0.4
		c0.4,0.3,0.9,0.4,1.4,0.5c0.6,0.1,1.6,0.1,2,0.2c1.3,0.4,2.7-0.4,3.1-1.8C556.1,128,555.3,126.5,553.9,126.2z"/>
	<path class="st28" d="M530.1,146.2c-5.9,1-5.8-4.3-5.2-5.3c1.1-1.8,3.3-0.6,3.3-0.6"/>
	<g>
		
			<rect x="595.3" y="150.2" transform="matrix(0.9752 -0.2213 0.2213 0.9752 -23.1373 139.6029)" class="st19" width="32.3" height="45.7"/>
		<path class="st28" d="M593.1,181.8c0,0,5.7-4.8,6.6-5.3c0.9-0.5,2.3-0.5,2.4,0.3c0.2,0.7-5.8,7.4-5.8,7.4S596.4,184.1,593.1,181.8
			z"/>
	</g>
	<g>
		<path class="st22" d="M317.4,388.7c0,0-0.4,4.2,0.2,4.6c2.6,1.7,14.9,3.1,20.3,4.1c1.1,0.2,2.2-0.5,2.4-1.6l0.3-1.4l-12.2-7
			L317.4,388.7z"/>
		<path class="st19" d="M340.6,394.3c0,0-22.4-2.8-23.2-4.5c-0.6-1.2,1.8-11.7,1.8-11.7l6,0.9C325.2,379.1,341.5,394.5,340.6,394.3z
			"/>
	</g>
	<g>
		<path class="st22" d="M351.9,378.4l0,14.1l1.7,0.6c0.9,0.3,1.8-0.1,2.2-1c1.8-4.9,6.9-17.3,6.8-20c0-0.7-3.9-2.5-3.9-2.5
			L351.9,378.4z"/>
		<path class="st19" d="M346.4,371.5l2.2-5.7c0,0,10.3,3.2,11,4.3c1.1,1.6-7.7,22.4-7.7,22.4C351.6,393.4,346.4,371.5,346.4,371.5z"
			/>
	</g>
	<path class="st30" d="M307.9,231.5l35.8,0.3c0,0,0.2,0.9,0.4,2.4c0.1,0.4,0.1,0.9,0.2,1.5c0.1,0.4,0.1,0.8,0.2,1.2
		c0.1,0.4,0.1,0.9,0.2,1.3c0.4,2.4,0.8,5.3,1.2,8.4c0.9,6.4,0.3,24.2-0.3,30.2c-1.2,11.6-4.8,40.1-6.4,44.1S329,383.3,329,383.3
		l-10.7-0.6c0,0-1.7-33.4-0.7-37.6c0.6-11.3,3.6-29.8,3.6-29.8c-0.3-2.3-5.9-62.9-5.9-62.9"/>
	<path class="st30" d="M305.8,319.8L305.8,319.8c0,0,17.5,7.2,25.5,15.4c3.5,2.5,22.6,31.8,22.6,31.8l-7.7,7.5
		c0,0-43.6-39.4-47.5-41.4c-0.7-0.4-2.1-1.4-4-2.8c-2.2-1.7-2.4-5-0.4-6.9l4.4-4.2C300.8,317,304.1,317.4,305.8,319.8z"/>
	<path class="st30" d="M325.6,261.7c0,0-15.9,59.7-16.6,61.9c0,0-2.9-0.9-2.9-0.6c0.6,3.8-2,7.4-5.8,7.9l-1.2,0.2
		c-3.6,0.5-6.9-1.8-7.7-5.4c0,0,0,0,0,0c-1-4.2-0.1-32.9,0.5-44.6c0.3-6,2.5-23.7,4.4-29.9c0.9-3,1.8-5.8,2.5-8.1
		c0.1-0.4,0.3-0.9,0.4-1.3c0.1-0.4,0.3-0.8,0.4-1.2c0.2-0.5,0.3-1,0.5-1.4c0.5-1.5,0.8-2.3,0.8-2.3l35.4,5.2L325.6,261.7z"/>
	<path class="st22" d="M313.4,153.5c-0.4,13.2-1.9,16.4-1.9,16.4c0,0.3-3.5,11.7,0.1,15c0.2,0.2,0.3,0.4,0.6,0.6
		c2.9,2.2,6.7,3.2,10.3,2.8s7.1-2.1,9.5-4.9c0.7-0.7,1.3-1.6,1.6-2.5c0.4-1.2,0.4-2.6,0.4-3.9c0-2.1-0.1-4.3-0.3-6.4
		c-3-6.2-1.9-12.2-1.4-18.3L313.4,153.5z"/>
	<path class="st8" d="M292.3,240.5c-1.6-28.9-8-58.2-0.7-64.9c0.5-0.5,1.2-0.8,1.8-1c3.4-1,15.1-4.3,18-4.6c0.6,1.6,1.2,3,2.3,4.3
		c2.1,2.2,5.1,3.4,8.1,3.4c5.3,0,9-3.2,11.6-7.5c0.6,0,14.4,5.5,19.6,10.4c4.4,4.2-12.4,33.3-7.1,66.1
		C345.3,258.9,293.7,266.1,292.3,240.5z"/>
	<g>
		<g>
			<g>
				<path class="st8" d="M307.4,172.9c-0.2-0.4-0.3-0.9-0.5-1.4c-0.2-0.8,0-1.5,0.4-1.6l3.4-0.4c0.4-0.1,0.8,0.2,0.9,0.7
					c0.1,0.3,0.2,0.6,0.3,0.9L307.4,172.9z"/>
				<path class="st8" d="M332.9,171c0.2-0.3,0.4-0.6,0.5-0.9c0.3-0.5,0.7-0.7,1.1-0.5l3.2,1.2c0.4,0.2,0.4,0.9,0,1.6
					c-0.2,0.4-0.5,0.8-0.7,1.2L332.9,171z"/>
				<path class="st31" d="M308.7,175.4c-0.5-0.8-0.9-1.7-1.3-2.5l4.6-1.8c0.3,0.6,0.5,1.2,0.9,1.7L308.7,175.4z"/>
				<path class="st8" d="M310.5,177.7c-0.3-0.3-0.7-0.7-1-1.1c-0.3-0.4-0.6-0.8-0.8-1.2l4.1-2.6c0.2,0.3,0.4,0.5,0.5,0.8
					c0.2,0.3,0.4,0.5,0.6,0.7L310.5,177.7z"/>
				<path class="st31" d="M312.7,179.6c-0.4-0.2-0.8-0.5-1.2-0.9c-0.4-0.3-0.7-0.6-1.1-1l3.5-3.4c0.2,0.2,0.4,0.4,0.7,0.6
					c0.2,0.2,0.5,0.4,0.7,0.6L312.7,179.6z"/>
				<path class="st8" d="M315.3,180.9c-0.9-0.4-1.8-0.8-2.5-1.4l2.7-4.1c0.5,0.4,1.1,0.6,1.7,0.9L315.3,180.9z"/>
				<path class="st31" d="M318,181.7c-0.9-0.1-1.8-0.5-2.7-0.8l1.8-4.6c0.6,0.2,1.2,0.4,1.9,0.5L318,181.7z"/>
				<path class="st8" d="M320.7,182.1l-1.4-0.1c-0.5-0.1-0.9-0.2-1.4-0.2l1-4.8c0.3,0.1,0.6,0.1,1,0.2l1,0.1L320.7,182.1z"/>
				<path class="st31" d="M323.5,182.1c-0.9,0-1.8,0.1-2.7,0l0.3-4.9c0.7,0.1,1.4,0,2,0L323.5,182.1z"/>
				<path class="st8" d="M326.2,181.6c-0.4,0.1-0.9,0.2-1.4,0.3c-0.5,0.1-0.9,0.2-1.4,0.2l-0.4-4.9c0.3,0,0.7-0.1,1-0.1
					c0.3-0.1,0.7-0.1,1-0.2L326.2,181.6z"/>
				<path class="st31" d="M328.8,180.8c-0.4,0.2-0.9,0.4-1.3,0.5l-1.3,0.4l-1.1-4.8l1-0.3c0.3-0.1,0.6-0.2,0.9-0.4L328.8,180.8z"/>
				<path class="st8" d="M331.3,179.5c-0.4,0.3-0.8,0.5-1.2,0.7c-0.4,0.2-0.8,0.4-1.3,0.6l-1.9-4.5c0.3-0.1,0.6-0.3,0.9-0.4
					c0.3-0.2,0.6-0.3,0.9-0.5L331.3,179.5z"/>
				<path class="st31" d="M333.6,177.8l-1.1,0.9c-0.4,0.3-0.8,0.5-1.2,0.8l-2.6-4.2c0.3-0.2,0.6-0.4,0.8-0.6l0.8-0.6L333.6,177.8z"
					/>
				<path class="st8" d="M335.5,175.8c-0.6,0.7-1.2,1.3-1.9,2l-3.3-3.7c0.5-0.5,1-0.9,1.4-1.5L335.5,175.8z"/>
				<path class="st31" d="M337.1,173.6c-0.5,0.8-1,1.5-1.6,2.2l-3.8-3.2c0.4-0.5,0.8-1.1,1.2-1.7L337.1,173.6z"/>
			</g>
		</g>
	</g>
	<path class="st8" d="M269,221.5c-3.1-1.7-4.3-5.6-2.6-8.7c6.3-11.2,21.4-32.8,23.4-35.5c5.4-7.3,21.9-1.7,13.8,12.2
		c-7.3,12.5-18,25.3-25.2,30C275.8,221.2,271.6,222.9,269,221.5L269,221.5z"/>
	<path class="st8" d="M361.7,232.1c3.5-0.6,5.8-4,5.1-7.5c-2.6-12.6-10.5-37.8-11.5-40.9c-2.9-8.6-20.4-8.3-16.8,7.5
		c3.2,14.1,9.5,29.5,15,36.2C355.3,229.7,358.7,232.6,361.7,232.1L361.7,232.1z"/>
	<g>
		<polygon class="st19" points="337,232.1 312.9,237.2 312.9,194.9 337,189.8 		"/>
		<polygon class="st19" points="298.6,226.6 312.9,237.2 312.9,194.9 298.6,184.4 		"/>
	</g>
	<g>
		<path class="st22" d="M283.4,215.1l10.3-1.4c0,0,2.7-4.1,4.9-4c0.6,0.2,0.3,0.9,0.1,2.1c0.1,0.1,0.3,0.4,0.4,0.4
			c2.2-0.3,3.9-2.7,4.7-1.8c1.2,1.3,2.1,6,0.5,7.7c-2.9,2.1-3.8,1.9-9.3,2.9c-4.3,0.8-11.1,2.4-11.1,2.4L283.4,215.1z"/>
		<g>
			<path class="st8" d="M293.6,212.6l2.1,9.6l-22.5,2.5c-3.7,0.7-7.4-1.7-8.1-5.3l0,0c-0.8-3.8,1.9-7.4,5.9-7.8L293.6,212.6z"/>
		</g>
	</g>
	<g>
		<path class="st22" d="M346.9,229.3c0,0-5.9-3.6-9.8-5.7c-4.9-2.7-5.9-2.7-8-5.6c-1-2.1,1.3-6.3,2.8-7.2c1.1-0.6,2,2.3,4,3.2
			c0,0.1,0.4-0.1,0.4-0.2c0.2-1.2,0.1-1.9,0.7-2c2.2,0.5,3.5,5.3,3.5,5.3l9.4,4.5L346.9,229.3z"/>
		<g>
			<path class="st8" d="M340.9,216.1l-4.9,8.6l20.7,9.2c3.3,1.8,7.5,0.6,9.4-2.6l0,0c1.9-3.4,0.4-7.6-3.2-9.2L340.9,216.1z"/>
		</g>
	</g>
	<g>
		<g>
			<path class="st19" d="M641.1,354.6c0,0-5.7,9.8-6.7,10.4c-1,0.5-5.8-2-5.4-3.7c0.5-2.2,5.1-10.8,5.1-10.8"/>
			<path class="st30" d="M635.6,363.8c-1,0.4-2,0.3-3,0c-1.7-0.5-2.7-2.1-2.8-3.9c-0.1-1.1-0.7-1.7-0.7-1.7c-0.7-0.7-0.6-0.2-2,1
				c-1.9,1.6-7.1,1.3-11.1-0.6c-1.4-0.7-6.6-3.4-7.7,0.1c-0.3,0.8,2,2.6,6.4,4.8l6.1,2.9c1.8,0.9,4.7,0.8,4.7,0.8l-0.2,1.4l7.2,3.5
				c0,0,2.2-3.1,3.2-5.1C636.8,365.1,635.7,363.8,635.6,363.8z"/>
		</g>
		<path class="st28" d="M663.5,308.2c0.4-3.3-0.1-10.3-0.3-12.5c-1-9.4-12.8-10.9-16.6-0.4c-3.6,12.2-17.6,59.7-17.6,59.7
			s3.8,2.8,9.1,4.5c0.2,0.1,1.6,0.2,1.9,0.2C646.7,345.3,661.2,327.6,663.5,308.2z"/>
		<path class="st28" d="M726.9,296.4c-0.8-2.2-6.9-2.9-11-3.3c-4.2-0.3-47.5-6-55.3-6.6c-1.3-0.1-2.4-0.1-3.5,0
			c-9.6,0.6-11.3,11.9-10,16.7c0.6,2.1,1.7,3.7,3.1,4.2l0,0c9.8,3.3,60.5,22.5,63.9,22.3C729.7,332.6,730.7,307.4,726.9,296.4z"/>
	</g>
	<g>
		<path class="st32" d="M697,251.9c0,0-6.7-1.9-11-2.9c-5.5-1.3-6.4-1.1-9.2-3.3c-1.5-1.7-0.4-6.4,0.8-7.7c0.9-0.8,2.5,1.7,4.7,2
			c0.1,0.1,0.3-0.2,0.4-0.3c-0.1-1.2-0.5-1.9,0.1-2.1c2.2-0.1,4.7,4.2,4.7,4.2l10.2,1.8L697,251.9z"/>
		<g>
			<path class="st5" d="M687.8,240.7l-2.5,9.5l28.9,3.4c3.7,0.8,7.4-1,8.4-4.6l0,0c1-3.8-3.3-7.8-7.2-8.4L687.8,240.7z"/>
		</g>
	</g>
	<g>
		<path class="st5" d="M744.6,283.2c0.7-8.1,3.1-20.3,5.3-34.3c2.2-13.9-2.7-24.1-7.8-32.9c0,0-12.1,1.2-17.1,6.7
			c-10.2,11.1-12.5,16.3-17.6,32.8c-1.2,4-5.7,24.7-6.6,28.6c-4.6,17.9-7.8,19-8.6,20.1c0,0,2.9,4.3,20.1,2.7
			c17.1-1.5,26.3-2.8,31.7,0.5C743.9,307.4,743.9,291.3,744.6,283.2z"/>
		<path class="st32" d="M728.4,210c3.1,8.8,0.7,11.7,0.7,11.7s8.7,0.6,13.2-3.4c-2.2-2.5-0.5-9.1-0.5-9.1S725.3,201.2,728.4,210z"/>
		<path class="st7" d="M743.9,218.6c-0.5-2.5-1.6-3.6-1.6-3.6c-4.1,0.1-13.8,3.1-13.8,3.1c-0.4,1.4-0.5,5.9-0.5,5.9
			C734.1,223.9,743.9,218.6,743.9,218.6z"/>
	</g>
	<g>
		<path class="st8" d="M751,332.1L738,333l2.6-38.4c0.5-6.8,1.7-13.6,3.6-20.2v0c2.4-8.3,3.7-16.9,3.9-25.5l0.3-11.3
			c0.4-5.3,5-9.2,10.2-8.8l0,0L751,332.1z"/>
		<path class="st8" d="M751,333h-80.9v-1.4c0-7.5,6.5-13.6,14.6-13.6h0c19.2,3.4,38.8,3.8,58.1,1.1l8.3-1.1V333z"/>
		<polygon class="st8" points="744.7,325.8 672.6,325.8 689.2,294.6 744.7,294.6 		"/>
	</g>
	<g>
		<path class="st0" d="M628.6,379.2l-20.5-13.3c-1.4-0.9-1.7-2.8-0.8-4.3l0,0c0.9-1.3,2.6-1.9,3.9-1.2l22.1,10.7
			c1.6,0.8,2.1,2.9,1.1,4.4l-1.7,2.5C631.9,379.6,630,380.1,628.6,379.2z"/>
		<path class="st0" d="M701.5,276.8h53.2v6.1H696v-0.6C696,279.3,698.4,276.8,701.5,276.8z"/>
		<g>
			<line class="st33" x1="673.9" y1="357.9" x2="780.1" y2="357.9"/>
			<path class="st33" d="M751.3,333h-87.6c-9.1,0-17.4,4.9-21.9,12.8L623.7,376"/>
			<path class="st33" d="M770.2,239.9h-3.6c-5,0-9.1,3.9-9.5,8.8l-2.4,35.9l-4.9,73.2"/>
			<path class="st33" d="M754.7,282.9h-48.9c-8.3,0-15.9,4.9-19.3,12.4l-12,26.3c-1.3,2.8-1.9,5.8-1.9,8.8v20.3
				c0,3.5,0.8,6.9,2.5,9.9l12.7,24.6"/>
		</g>
	</g>
	<g>
		<circle class="st34" cx="751" cy="343.2" r="49.1"/>
		<circle class="st0" cx="751" cy="343.2" r="3"/>
		<g>
			<g>
				<g>
					<line class="st35" x1="748.8" y1="294.1" x2="753.2" y2="392.3"/>
					<line class="st35" x1="753.2" y1="294.1" x2="748.8" y2="392.3"/>
				</g>
				<g>
					<line class="st35" x1="800.1" y1="341" x2="701.9" y2="345.4"/>
					<line class="st35" x1="800.1" y1="345.4" x2="701.9" y2="341"/>
				</g>
				<g>
					<line class="st35" x1="787.2" y1="376.4" x2="714.7" y2="310"/>
					<line class="st35" x1="784.2" y1="379.4" x2="717.8" y2="307"/>
				</g>
				<g>
					<line class="st35" x1="717.8" y1="379.4" x2="784.2" y2="307"/>
					<line class="st35" x1="714.7" y1="376.4" x2="787.2" y2="310"/>
				</g>
			</g>
			<g>
				<g>
					<line class="st35" x1="730.2" y1="298.7" x2="771.8" y2="387.7"/>
					<line class="st35" x1="734.2" y1="297" x2="767.8" y2="389.4"/>
				</g>
				<g>
					<line class="st35" x1="795.5" y1="322.4" x2="706.5" y2="364"/>
					<line class="st35" x1="797.2" y1="326.4" x2="704.8" y2="360"/>
				</g>
				<g>
					<line class="st35" x1="797.2" y1="360" x2="704.8" y2="326.4"/>
					<line class="st35" x1="795.5" y1="364" x2="706.5" y2="322.4"/>
				</g>
				<g>
					<line class="st35" x1="734.2" y1="389.4" x2="767.8" y2="297"/>
					<line class="st35" x1="730.2" y1="387.7" x2="771.8" y2="298.7"/>
				</g>
			</g>
		</g>
	</g>
	<g>
		<circle class="st0" cx="687.7" cy="385.2" r="10.5"/>
		<circle class="st36" cx="687.7" cy="385.2" r="4"/>
	</g>
	<path class="st5" d="M710.3,267.7c2.5,2.5,3.1,4.7,6.1,2.8c12.3-8,27.7-29.1,29.7-31.8c5.4-7.3-4.7-21.5-15.7-9.7
		c-9.8,10.6-14.4,18.3-18.5,27.6C710.6,259.5,708.1,265.6,710.3,267.7L710.3,267.7z"/>
	<g>
		<polygon class="st22" points="664,261.8 685,261.3 673.9,213.1 651,225.6 		"/>
	</g>
	<g>
		<polygon class="st19" points="661.4,265 691.3,262.2 679.6,218 651,225.6 		"/>
	</g>
	<g>
		<path class="st32" d="M699.3,265.9c0,0-6.1-3.2-10.1-5.1c-5.1-2.4-6-2.3-8.3-5.1c-1.1-2,0.9-6.4,2.4-7.3c1-0.6,2.1,2.1,4.2,2.9
			c0,0.1,0.4-0.2,0.4-0.3c0.1-1.2-0.1-1.9,0.6-2c2.2,0.4,3.8,5.1,3.8,5.1l9.6,3.9L699.3,265.9z"/>
		<g>
			<path class="st5" d="M692.5,253l-4.4,8.8l21.2,7.9c3.4,1.6,9.1,0.9,10.8-2.4l0,0c1.7-3.5-1.6-8.3-5.4-9.7L692.5,253z"/>
		</g>
	</g>
	<g>
		<g>
			<path class="st32" d="M721.9,180.5c0.6,0,16-0.5,16.5-0.2s6.7,10.4,6.2,20.2c-0.5,9.9-7.9,12.2-9.1,12.1
				c-6.3,2.2-13.5,3.5-16.8,1.5c-2.9-4.1-4.4-9.6-5.1-15.4c0.2-1.1,0.8-2.4,0.6-3.8c0-0.4-0.8-0.9-0.9-1.3c-1.6-3.5-0.4-5.2-0.4-5.2
				S721.3,180.5,721.9,180.5z"/>
			<path class="st32" d="M716.3,206c0,0-3.8,0.4-4.1-1.2c-0.3-1.6,2-7.5,2-7.5L716.3,206z"/>
		</g>
		<path class="st24" d="M733.3,195.6c0.6,0.4,0.4-3.7,0.6-4.1c1.1-2.3,4.5-3,6.1-1.4c5.4,6.7-1.3,10.2-1.3,12.6
			c0.1,4.5,0.8,6.8,3,6.3c2.1-0.5,4.8-5.1,6.7-10.6c0.2-0.7,0.4-1,0.8-2.3c0.5-1.8,1.7-1.4,1.7-1.4c0.7-4.1,0.4-6.9,0.1-9.1
			c-0.2-1.6-0.4-3.1-1-4.4c-0.8-1.9-0.2-2.1,0.4-2.1c0.3,0,0.4-0.2,0.2-0.5c-0.5-0.8-1.5-2-3.2-3.4c-2.4-1.8-4.3-3-6.3-3
			c-8-8.5-21.4-2.8-24.6,0.3c-3.2,3.1-7.4,15.3-3.9,17.4c3.5,2.1,4.2,1.5,6.3,2.1c0.7,0.2-0.8-4.5-0.8-4.5s1.4,2.8,2.4,3.5
			c1.1,0.7,4.5,2.2,6.8,2.6c1.5,0.2,0-2.7-0.5-5.7c0,0,0.6,1,1.4,2.4C729,191.6,730.8,193.8,733.3,195.6z"/>
	</g>
	<path class="st37" d="M65.8,310.7c0,0-5.4,29.7,33.4,71.9c13.1,14.3,17,31.9,16.5,48.9"/>
	<g>
		<path class="st38" d="M66.3,285.3c0.1,15-0.9,27.1-0.9,27.1s-1.1-12.1-1.2-27.1c-0.1-15,0.3-27.1,0.9-27.1
			C65.7,258.2,66.3,270.3,66.3,285.3z"/>
		<path class="st38" d="M70.6,287.7c-2.2,13.7-5.1,24.7-5.1,24.7s0.8-11.3,3.1-25.1c2.2-13.7,4.5-24.8,5.1-24.7S72.8,274,70.6,287.7
			z"/>
		<path class="st38" d="M74.6,288.8c-4.5,13.2-9.2,23.7-9.2,23.7s2.7-11.1,7.2-24.3c4.5-13.2,8.6-23.8,9.2-23.7
			C82.4,264.7,79.2,275.6,74.6,288.8z"/>
		<path class="st38" d="M78.4,292.5c-6.6,11.3-12.9,19.9-12.9,19.9s4.5-9.7,11.1-21c6.6-11.3,12.4-20.2,12.9-19.9
			C90,271.8,85,281.2,78.4,292.5z"/>
		<path class="st38" d="M82.2,295.6c-8.8,9.7-16.7,16.9-16.7,16.9s6.4-8.5,15.2-18.2c8.8-9.7,16.3-17.3,16.7-16.9
			S91,285.9,82.2,295.6z"/>
		<path class="st38" d="M83.2,298.9c-9.4,7.9-17.7,13.6-17.7,13.6s7-7.2,16.4-15.1s17.3-14,17.7-13.6
			C99.9,284.2,92.6,291,83.2,298.9z"/>
		<path class="st38" d="M84.9,303.3c-10.4,5.6-19.4,9.2-19.4,9.2s8-5.4,18.4-11c10.4-5.6,19.1-9.7,19.4-9.2
			C103.6,292.8,95.3,297.7,84.9,303.3z"/>
		<path class="st38" d="M84.8,308.5c-10.5,2.7-19.3,4-19.3,4s8.3-3.2,18.8-6c10.5-2.7,19.2-4.5,19.3-4
			C103.8,303.1,95.3,305.7,84.8,308.5z"/>
		<path class="st38" d="M84.4,311.5c-10.4,1.1-18.9,0.9-18.9,0.9s8.3-1.9,18.7-2.9c10.4-1.1,18.9-1.5,18.9-0.9
			C103.2,309.2,94.8,310.5,84.4,311.5z"/>
		<path class="st38" d="M81.5,314.8c-8.9-0.7-16-2.4-16-2.4s7.3-0.4,16.2,0.3c8.9,0.7,16,1.8,16,2.4
			C97.6,315.7,90.4,315.5,81.5,314.8z"/>
		<path class="st38" d="M76.8,318.1c-6.4-2.6-11.3-5.7-11.3-5.7s5.6,1.2,12,3.8s11.5,5.2,11.3,5.7C88.6,322.5,83.2,320.8,76.8,318.1
			z"/>
		<path class="st38" d="M60.1,287.2c2.5,14,5.5,25.2,5.5,25.2s-1-11.6-3.5-25.6c-2.5-14-4.9-25.3-5.5-25.2
			C56.1,261.7,57.7,273.2,60.1,287.2z"/>
		<path class="st38" d="M56.2,289c4.7,13.1,9.4,23.5,9.4,23.5s-2.8-11-7.5-24.1c-4.7-13.1-8.9-23.7-9.4-23.5
			C48.1,265,51.5,275.8,56.2,289z"/>
		<path class="st38" d="M52.4,292.7c6.8,11.2,13.1,19.8,13.1,19.8s-4.6-9.6-11.4-20.8s-12.6-20.1-13.1-19.8
			C40.6,272.1,45.7,281.4,52.4,292.7z"/>
		<path class="st38" d="M48.7,295.8c8.9,9.6,16.9,16.7,16.9,16.7s-6.5-8.5-15.4-18.1s-16.5-17.1-16.9-16.7
			C32.8,278.1,39.7,286.2,48.7,295.8z"/>
		<path class="st38" d="M47.8,299.2c9.4,7.8,17.7,13.3,17.7,13.3s-7-7.1-16.4-14.8c-9.4-7.8-17.4-13.7-17.7-13.3
			C31,284.8,38.4,291.4,47.8,299.2z"/>
		<path class="st38" d="M46.6,303.8c10.2,5.3,19,8.7,19,8.7s-7.8-5.2-18-10.5s-18.7-9.2-19-8.7C28.3,293.8,36.4,298.5,46.6,303.8z"
			/>
		<path class="st38" d="M47.3,309c9.9,2.5,18.2,3.5,18.2,3.5s-7.8-3-17.7-5.4c-9.9-2.5-18.1-4-18.2-3.5
			C29.4,304.1,37.4,306.5,47.3,309z"/>
		<path class="st38" d="M48.3,311.9c9.5,0.9,17.3,0.5,17.3,0.5s-7.6-1.7-17.1-2.6s-17.2-1.1-17.3-0.5
			C31.2,309.9,38.8,311.1,48.3,311.9z"/>
		<path class="st38" d="M49.6,315c8.9-0.8,16-2.5,16-2.5s-7.3-0.3-16.2,0.5s-16,2-16,2.5C33.5,316.1,40.7,315.8,49.6,315z"/>
		<path class="st38" d="M54.4,318.3c6.4-2.7,11.2-5.8,11.2-5.8s-5.6,1.3-12,4s-11.4,5.3-11.2,5.8C42.6,322.8,47.9,321,54.4,318.3z"
			/>
	</g>
	<path class="st39" d="M105.8,349.4c0,0-7.8,16.8,8.6,47.8c5.5,10.5,5.1,21.5,2.2,31.5"/>
	<g>
		<path class="st38" d="M110.1,334.5c-2.3,8.9-4.7,15.9-4.7,15.9s1.2-7.4,3.5-16.2c2.3-8.9,4.4-16,4.7-15.9S112.3,325.6,110.1,334.5
			z"/>
		<path class="st38" d="M112.2,336.6c-3.5,7.8-6.8,13.9-6.8,13.9s2.2-6.6,5.7-14.4c3.5-7.8,6.5-14,6.8-13.9S115.6,328.8,112.2,336.6
			z"/>
		<path class="st38" d="M114.4,337.9c-4.7,7.1-9.1,12.6-9.1,12.6s3.3-6.1,8-13.3s8.8-12.8,9.1-12.6
			C122.8,324.8,119.2,330.7,114.4,337.9z"/>
		<path class="st38" d="M116.1,340.6c-5.7,5.7-10.7,9.8-10.7,9.8s4.2-5,9.8-10.7c5.7-5.7,10.5-10.1,10.7-9.8S121.8,335,116.1,340.6z
			"/>
		<path class="st38" d="M117.9,343c-6.7,4.4-12.5,7.4-12.5,7.4s5.1-4.1,11.8-8.4c6.7-4.4,12.3-7.7,12.5-7.4
			C129.9,334.9,124.6,338.7,117.9,343z"/>
		<path class="st38" d="M117.9,345.2c-6.8,3.2-12.6,5.3-12.6,5.3s5.2-3.2,12-6.4s12.4-5.6,12.6-5.3
			C130.1,339.1,124.7,341.9,117.9,345.2z"/>
		<path class="st38" d="M118.3,348c-7,1.7-12.9,2.4-12.9,2.4s5.6-2,12.6-3.6c7-1.7,12.8-2.8,12.9-2.4S125.3,346.3,118.3,348z"/>
		<path class="st38" d="M117.4,351.1c-6.7,0-12.1-0.6-12.1-0.6s5.4-0.6,12.1-0.6c6.7,0,12.1,0.3,12.1,0.6
			C129.5,350.8,124.1,351.1,117.4,351.1z"/>
		<path class="st38" d="M116.7,352.8c-6.3-1-11.4-2.4-11.4-2.4s5.2,0.2,11.5,1.2c6.3,1,11.4,2.1,11.4,2.4
			C128.2,354.4,123,353.8,116.7,352.8z"/>
		<path class="st38" d="M114.5,354.3c-5.1-1.8-9.1-3.9-9.1-3.9s4.4,0.9,9.5,2.7s9.2,3.5,9.1,3.9
			C123.9,357.3,119.6,356.1,114.5,354.3z"/>
		<path class="st38" d="M111.1,355.6c-3.4-2.6-5.8-5.1-5.8-5.1s3.1,1.6,6.5,4.1s6,4.8,5.8,5.1S114.6,358.1,111.1,355.6z"/>
		<path class="st38" d="M106.1,334.7c-0.7,8.7-0.7,15.8-0.7,15.8s1.2-7,1.9-15.7s1-15.8,0.7-15.8C107.7,319,106.8,326,106.1,334.7z"
			/>
		<path class="st38" d="M103.5,335.1c0.7,8.5,1.9,15.3,1.9,15.3s0-6.9-0.7-15.5c-0.7-8.5-1.6-15.4-1.9-15.3S102.7,326.6,103.5,335.1
			z"/>
		<path class="st38" d="M100.7,336.7c2.3,7.7,4.7,13.8,4.7,13.8s-1.2-6.4-3.5-14.1s-4.4-13.8-4.7-13.8
			C96.9,322.7,98.4,329,100.7,336.7z"/>
		<path class="st38" d="M98,338c3.8,7.1,7.4,12.5,7.4,12.5s-2.5-6-6.3-13.1c-3.8-7.1-7.1-12.7-7.4-12.5C91.4,325,94.2,330.9,98,338z
			"/>
		<path class="st38" d="M97,339.9c4.4,6.1,8.4,10.6,8.4,10.6s-3-5.3-7.4-11.3c-4.4-6.1-8.2-10.8-8.4-10.6
			C89.3,328.7,92.6,333.8,97,339.9z"/>
		<path class="st38" d="M95.5,342.4c5.2,4.7,9.9,8.1,9.9,8.1s-3.8-4.3-9.1-9s-9.7-8.3-9.9-8.1S90.3,337.7,95.5,342.4z"/>
		<path class="st38" d="M95.1,345.6c5.5,3,10.3,4.9,10.3,4.9s-4.2-3-9.7-6c-5.5-3-10.1-5.2-10.3-4.9
			C85.3,339.9,89.6,342.6,95.1,345.6z"/>
		<path class="st38" d="M95.3,347.5c5.5,2,10.1,3,10.1,3s-4.2-2.2-9.7-4.2c-5.5-2-10-3.3-10.1-3C85.4,343.6,89.8,345.5,95.3,347.5z"
			/>
		<path class="st38" d="M95.5,349.5c5.4,0.9,9.8,1,9.8,1s-4.3-1.3-9.6-2.2c-5.4-0.9-9.8-1.3-9.8-1C85.8,347.6,90.2,348.6,95.5,349.5
			z"/>
		<path class="st38" d="M97.9,352.2c4.2-0.6,7.5-1.7,7.5-1.7s-3.5-0.1-7.7,0.5c-4.2,0.6-7.6,1.4-7.5,1.7
			C90.2,353,93.6,352.8,97.9,352.2z"/>
	</g>
	<g>
		<line class="st40" x1="485.4" y1="456.2" x2="485.4" y2="325.3"/>
		<path class="st41" d="M488,320.8c0,2.5-1.2,4.5-2.6,4.5c-1.4,0-2.6-2-2.6-4.5c0-2.5,2.6-4.5,2.6-4.5S488,318.3,488,320.8z"/>
		<g>
			<g>
				<path class="st42" d="M494.2,327.7c-1.8,1.8-4,2.4-5,1.4c-1-1-0.4-3.3,1.4-5c1.8-1.8,5-1.4,5-1.4S495.9,325.9,494.2,327.7z"/>
				<path class="st43" d="M485.5,333.7c0.6-2.7,2.7-4.5,3.8-4.8L485.5,333.7z"/>
			</g>
			<g>
				<path class="st42" d="M476.7,327.7c1.8,1.8,4,2.4,5,1.4c1-1,0.4-3.3-1.4-5c-1.8-1.8-5-1.4-5-1.4S474.9,325.9,476.7,327.7z"/>
				<path class="st43" d="M485.4,333.7c-0.6-2.7-2.7-4.5-3.8-4.8L485.4,333.7z"/>
			</g>
		</g>
		<g>
			<g>
				<path class="st19" d="M494.2,337.2c-1.8,1.8-4,2.4-5,1.4c-1-1-0.4-3.3,1.4-5c1.8-1.8,5-1.4,5-1.4S495.9,335.4,494.2,337.2z"/>
				<path class="st43" d="M485.5,343.2c0.6-2.7,2.7-4.5,3.8-4.8L485.5,343.2z"/>
			</g>
			<g>
				<path class="st19" d="M476.7,337.2c1.8,1.8,4,2.4,5,1.4c1-1,0.4-3.3-1.4-5c-1.8-1.8-5-1.4-5-1.4S474.9,335.4,476.7,337.2z"/>
				<path class="st43" d="M485.4,343.2c-0.6-2.7-2.7-4.5-3.8-4.8L485.4,343.2z"/>
			</g>
		</g>
		<g>
			<g>
				<path class="st41" d="M494.2,346.7c-1.8,1.8-4,2.4-5,1.4c-1-1-0.4-3.3,1.4-5c1.8-1.8,5-1.4,5-1.4S495.9,344.9,494.2,346.7z"/>
				<path class="st43" d="M485.5,352.7c0.6-2.7,2.7-4.5,3.8-4.8L485.5,352.7z"/>
			</g>
			<g>
				<path class="st41" d="M476.7,346.7c1.8,1.8,4,2.4,5,1.4c1-1,0.4-3.3-1.4-5c-1.8-1.8-5-1.4-5-1.4S474.9,344.9,476.7,346.7z"/>
				<path class="st43" d="M485.4,352.7c-0.6-2.7-2.7-4.5-3.8-4.8L485.4,352.7z"/>
			</g>
		</g>
		<g>
			<g>
				<path class="st42" d="M494.2,356.2c-1.8,1.8-4,2.4-5,1.4c-1-1-0.4-3.3,1.4-5c1.8-1.8,5-1.4,5-1.4S495.9,354.4,494.2,356.2z"/>
				<path class="st43" d="M485.5,362.2c0.6-2.7,2.7-4.5,3.8-4.8L485.5,362.2z"/>
			</g>
			<g>
				<path class="st42" d="M476.7,356.2c1.8,1.8,4,2.4,5,1.4c1-1,0.4-3.3-1.4-5c-1.8-1.8-5-1.4-5-1.4S474.9,354.4,476.7,356.2z"/>
				<path class="st43" d="M485.4,362.2c-0.6-2.7-2.7-4.5-3.8-4.8L485.4,362.2z"/>
			</g>
		</g>
		<g>
			<g>
				<path class="st44" d="M494.2,365.7c-1.8,1.8-4,2.4-5,1.4c-1-1-0.4-3.3,1.4-5c1.8-1.8,5-1.4,5-1.4S495.9,363.9,494.2,365.7z"/>
				<path class="st43" d="M485.5,371.7c0.6-2.7,2.7-4.5,3.8-4.8L485.5,371.7z"/>
			</g>
			<g>
				<path class="st44" d="M476.7,365.7c1.8,1.8,4,2.4,5,1.4c1-1,0.4-3.3-1.4-5c-1.8-1.8-5-1.4-5-1.4S474.9,363.9,476.7,365.7z"/>
				<path class="st43" d="M485.4,371.7c-0.6-2.7-2.7-4.5-3.8-4.8L485.4,371.7z"/>
			</g>
		</g>
		<g>
			<g>
				<path class="st41" d="M494.2,375.2c-1.8,1.8-4,2.4-5,1.4s-0.4-3.3,1.4-5c1.8-1.8,5-1.4,5-1.4S495.9,373.4,494.2,375.2z"/>
				<path class="st43" d="M485.5,381.2c0.6-2.7,2.7-4.5,3.8-4.8L485.5,381.2z"/>
			</g>
			<g>
				<path class="st41" d="M476.7,375.2c1.8,1.8,4,2.4,5,1.4s0.4-3.3-1.4-5c-1.8-1.8-5-1.4-5-1.4S474.9,373.4,476.7,375.2z"/>
				<path class="st43" d="M485.4,381.2c-0.6-2.7-2.7-4.5-3.8-4.8L485.4,381.2z"/>
			</g>
		</g>
	</g>
	<g>
		<line class="st40" x1="593" y1="417.8" x2="593" y2="287"/>
		<path class="st41" d="M595.6,282.5c0,2.5-1.2,4.5-2.6,4.5s-2.6-2-2.6-4.5c0-2.5,2.6-4.5,2.6-4.5S595.6,280,595.6,282.5z"/>
		<g>
			<g>
				<path class="st42" d="M601.9,289.3c-1.8,1.8-4,2.4-5,1.4c-1-1-0.4-3.3,1.4-5c1.8-1.8,5-1.4,5-1.4S603.6,287.6,601.9,289.3z"/>
				<path class="st43" d="M593.2,295.4c0.6-2.7,2.7-4.5,3.8-4.8L593.2,295.4z"/>
			</g>
			<g>
				<path class="st42" d="M584.4,289.3c1.8,1.8,4,2.4,5,1.4c1-1,0.4-3.3-1.4-5c-1.8-1.8-5-1.4-5-1.4S582.6,287.6,584.4,289.3z"/>
				<path class="st43" d="M593,295.4c-0.6-2.7-2.7-4.5-3.8-4.8L593,295.4z"/>
			</g>
		</g>
		<g>
			<g>
				<path class="st19" d="M601.9,298.8c-1.8,1.8-4,2.4-5,1.4c-1-1-0.4-3.3,1.4-5c1.8-1.8,5-1.4,5-1.4S603.6,297.1,601.9,298.8z"/>
				<path class="st43" d="M593.2,304.9c0.6-2.7,2.7-4.5,3.8-4.8L593.2,304.9z"/>
			</g>
			<g>
				<path class="st19" d="M584.4,298.8c1.8,1.8,4,2.4,5,1.4c1-1,0.4-3.3-1.4-5c-1.8-1.8-5-1.4-5-1.4S582.6,297.1,584.4,298.8z"/>
				<path class="st43" d="M593,304.9c-0.6-2.7-2.7-4.5-3.8-4.8L593,304.9z"/>
			</g>
		</g>
		<g>
			<g>
				<path class="st41" d="M601.9,308.4c-1.8,1.8-4,2.4-5,1.4c-1-1-0.4-3.3,1.4-5c1.8-1.8,5-1.4,5-1.4S603.6,306.6,601.9,308.4z"/>
				<path class="st43" d="M593.2,314.4c0.6-2.7,2.7-4.5,3.8-4.8L593.2,314.4z"/>
			</g>
			<g>
				<path class="st41" d="M584.4,308.4c1.8,1.8,4,2.4,5,1.4c1-1,0.4-3.3-1.4-5c-1.8-1.8-5-1.4-5-1.4S582.6,306.6,584.4,308.4z"/>
				<path class="st43" d="M593,314.4c-0.6-2.7-2.7-4.5-3.8-4.8L593,314.4z"/>
			</g>
		</g>
		<g>
			<g>
				<path class="st42" d="M601.9,317.9c-1.8,1.8-4,2.4-5,1.4c-1-1-0.4-3.3,1.4-5c1.8-1.8,5-1.4,5-1.4S603.6,316.1,601.9,317.9z"/>
				<path class="st43" d="M593.2,323.9c0.6-2.7,2.7-4.5,3.8-4.8L593.2,323.9z"/>
			</g>
			<g>
				<path class="st42" d="M584.4,317.9c1.8,1.8,4,2.4,5,1.4c1-1,0.4-3.3-1.4-5c-1.8-1.8-5-1.4-5-1.4S582.6,316.1,584.4,317.9z"/>
				<path class="st43" d="M593,323.9c-0.6-2.7-2.7-4.5-3.8-4.8L593,323.9z"/>
			</g>
		</g>
		<g>
			<g>
				<path class="st44" d="M601.9,327.4c-1.8,1.8-4,2.4-5,1.4c-1-1-0.4-3.3,1.4-5c1.8-1.8,5-1.4,5-1.4S603.6,325.6,601.9,327.4z"/>
				<path class="st43" d="M593.2,333.4c0.6-2.7,2.7-4.5,3.8-4.8L593.2,333.4z"/>
			</g>
			<g>
				<path class="st44" d="M584.4,327.4c1.8,1.8,4,2.4,5,1.4c1-1,0.4-3.3-1.4-5s-5-1.4-5-1.4S582.6,325.6,584.4,327.4z"/>
				<path class="st43" d="M593,333.4c-0.6-2.7-2.7-4.5-3.8-4.8L593,333.4z"/>
			</g>
		</g>
		<g>
			<g>
				<path class="st41" d="M601.9,336.9c-1.8,1.8-4,2.4-5,1.4c-1-1-0.4-3.3,1.4-5c1.8-1.8,5-1.4,5-1.4S603.6,335.1,601.9,336.9z"/>
				<path class="st43" d="M593.2,342.9c0.6-2.7,2.7-4.5,3.8-4.8L593.2,342.9z"/>
			</g>
			<g>
				<path class="st41" d="M584.4,336.9c1.8,1.8,4,2.4,5,1.4c1-1,0.4-3.3-1.4-5s-5-1.4-5-1.4S582.6,335.1,584.4,336.9z"/>
				<path class="st43" d="M593,342.9c-0.6-2.7-2.7-4.5-3.8-4.8L593,342.9z"/>
			</g>
		</g>
	</g>
	<g>
		<g>
			<path class="st12" d="M882.8,366.2c1.4-0.8,2.6-2,3-3.6c0.2-0.8,0.3-1.5,0.2-2.3c0.1-1.5-0.6-2.9-1.7-3.9c-1-0.9-2.7-1.5-4.1-1.1
				c-0.8,0.3-1.4,0.5-2.1,0.9c-0.7,0.1-1.3,0.3-2,0.6c-1.4,0.8-2.4,2.1-2.7,3.6c-0.3,1.7,0.2,3.1,1.2,4.5c0.3,0.4,0.8,0.7,1.1,1
				c0.8,0.6,1.7,0.7,2.7,0.9c0.2,0,0.4,0.1,0.6,0.1C880.4,367,881.7,366.8,882.8,366.2z"/>
			<path class="st45" d="M879.3,361c0.5-4-2.1-10.3-6.3-10"/>
		</g>
		<g>
			<path class="st12" d="M799.8,331.8c-1.4,1.1-2.5,2.7-2.7,4.6c-0.1,1,0,1.8,0.1,2.6c0.2,1.7,1.1,3.1,2.6,4
				c1.3,0.8,3.3,1.3,4.8,0.5c0.9-0.5,1.5-0.8,2.2-1.4c0.7-0.2,1.5-0.5,2.1-1c1.5-1.1,2.3-2.7,2.4-4.6c0.1-2-0.7-3.5-2.2-4.8
				c-0.4-0.4-1-0.7-1.4-0.9c-1-0.5-2.1-0.5-3.1-0.5c-0.2,0-0.5,0-0.7,0C802.3,330.4,800.9,330.9,799.8,331.8z"/>
			<path class="st45" d="M804.8,337c0.2,5.1,4.6,12.6,9.9,11.3"/>
		</g>
		<path class="st12" d="M879.4,349.7l1.2-2.9c0.3-1.1,0.5-2.2,0.5-3.3c0-0.1,0-0.1,0-0.2c0-0.3-0.3-2.8-0.4-3.1c0-0.1,0-0.1,0-0.2
			l0-0.1c-0.4-0.9-0.7-1.9-1.1-2.8c-0.1-0.1-0.1-0.2-0.2-0.3c-0.3-0.4-0.6-0.9-1-1.3c-0.3-0.4-0.6-0.9-0.9-1.3
			c-0.1-0.1-0.1-0.1-0.2-0.2c-1.1-1.2-2.4-2.1-3.9-2.6c-1.4-0.7-2.9-1.1-4.4-1c-1,0.1-2,0.2-3,0.4c-1.5,0.3-2.9,1-4,2
			c-0.9,0.5-1.7,1.2-2.2,2.1c-1.1,1.2-1.8,2.5-2.2,4.1c-0.1,0.6-0.2,1.2-0.3,1.9c0,0,0,0.1,0,0.1c-0.5,2-0.6,4-0.1,6
			c0.3,1.5,1,2.9,2,4c0.8,1.4,2,2.4,3.4,3.2c1.8,1.1,3.8,1.6,5.9,1.7c0,0,0.1,0,0.1,0c1-0.1,2-0.2,3-0.4c1.5-0.3,2.9-1,4.1-2
			c0.5-0.3,0.9-0.6,1.3-0.9c0,0,0.1-0.1,0.1-0.1c0.3-0.4,1.8-2.1,2-2.6C879.2,349.9,879.3,349.9,879.4,349.7L879.4,349.7z"/>
		<path class="st12" d="M867.3,378.1c0.6-2.5,0.4-5.3-1-7.6c-0.7-1.2-1.5-2-2.5-2.8c-1.8-1.8-4.1-2.5-6.5-2.2
			c-2.2,0.3-4.8,1.5-5.8,3.7c-0.6,1.3-1,2.3-1.2,3.5c-0.7,0.9-1.2,1.9-1.5,3.1c-0.7,2.6-0.2,5.1,1.4,7.2c1.7,2.3,3.9,3.2,6.7,3.5
			c0.7,0.1,1.7-0.1,2.4-0.2c1.6-0.3,2.8-1.3,4-2.2c0.3-0.2,0.5-0.4,0.8-0.7C865.7,381.9,866.8,380,867.3,378.1z"/>
		<path class="st12" d="M869.4,309.1c-0.5-2-1.5-3.6-2.9-5.1c-0.6-0.7-1.5-1.4-2.3-1.9c-0.8-0.5-1.6-0.9-2.5-1.1
			c-0.5-0.1-1.5-0.3-2.1-0.3c-0.6,0-1.5,0.1-2,0.2c-0.3,0.1-0.7,0.2-1,0.4c0.1-0.1-0.7,0.3-1,0.4c-0.9,0.5-1.6,1.2-2.2,1.9
			c-0.8,1-1.2,1.5-1.5,2.8c-0.1,0.6-0.3,1.4-0.3,2c0,0.1,0,0.2,0,0.3c0.1,1.2,0.3,2.4,0.9,3.5c0,0,0,0,0,0c-0.1,0.5,0,0.9,0.1,1.4
			c0,0.7,0.2,1.3,0.5,1.9c0.6,1.5,1.6,2.9,3.1,3.7c1.3,0.7,2.8,1.1,4.3,1.2c0.1,0,0.2,0,0.3,0c0.7,0,1.5-0.1,2.1-0.3
			c0.7-0.2,1.5-0.5,2.2-0.8c0.3-0.2,0.7-0.5,1-0.7c0.4-0.3,0.6-0.4,0.9-0.7C869.4,315.5,870.2,312.2,869.4,309.1z"/>
		<path class="st12" d="M813.2,308.8c-1.1,2.1-1.5,4.3-1.6,6.6c0,1.1,0.2,2.3,0.5,3.4c0.2,1,0.7,2,1.3,2.9c0.3,0.5,1.1,1.4,1.5,1.8
			c0.5,0.4,1.4,1.1,1.9,1.4c0.3,0.2,0.8,0.3,1.1,0.4c-0.1,0,0.8,0.4,1.1,0.4c1.1,0.3,2.3,0.2,3.4,0.1c1.4-0.2,2.1-0.3,3.5-1.2
			c0.6-0.4,1.3-1,1.8-1.5c0.1-0.1,0.2-0.2,0.2-0.3c0.9-1.1,1.6-2.3,2-3.7c0,0,0,0,0,0c0.4-0.4,0.8-0.8,1-1.3c0.5-0.6,0.9-1.2,1.1-2
			c0.7-1.8,0.9-3.8,0.3-5.6c-0.6-1.7-1.5-3.1-2.8-4.4c-0.1-0.1-0.2-0.2-0.3-0.2c-0.6-0.5-1.4-1.1-2-1.4c-0.8-0.4-1.7-0.8-2.5-1
			c-0.4-0.1-1-0.1-1.4-0.2c-0.5-0.1-0.9-0.1-1.3-0.1C818.2,303.3,815,305.5,813.2,308.8z"/>
		<path class="st12" d="M831.8,357.6c0.2-1.5,0-3-0.6-4.4c0.7-1.2,1.1-2.5,1-3.9c-0.1-2-0.9-3.5-2.1-5c-0.5-0.7-1-1.3-1.6-1.9
			c-1.4-1.2-2.9-2.1-4.7-2.5c-4.5-0.9-9,1.4-11.3,5.3c-1.3,2.2-1.9,4.7-1.9,7.3c0,1.3,0.2,2.6,0.5,3.8c0.3,1.2,0.8,2.4,1.5,3.4
			c1.2,1.7,2.6,3.2,4.4,4.2c2,1.1,4.2,1.5,6.5,1.5c2,0,4.6-1.1,6-2.6C830.7,361.2,831.5,359.6,831.8,357.6z"/>
		<path class="st12" d="M813.2,369.6c-0.3-1.4-1-2.9-2-4c0.3-1.3,0.2-2.7-0.4-4c-0.8-1.8-2-3-3.7-4c-0.7-0.5-1.4-0.9-2.1-1.2
			c-1.7-0.7-3.4-1-5.3-0.7c-4.5,0.7-8,4.4-8.9,8.8c-0.5,2.5-0.2,5.1,0.6,7.5c0.4,1.2,1.1,2.3,1.8,3.4c0.7,1,1.6,2,2.6,2.7
			c1.7,1.2,3.5,2.1,5.6,2.4c2.3,0.3,4.4,0,6.6-0.7c1.9-0.7,4-2.6,4.8-4.5C813.4,373.4,813.6,371.5,813.2,369.6z"/>
		<path class="st46" d="M822.6,435.1C814,410,820.3,387,835.8,380c18.5-8.4-1.8-33.2,1.7-48.2c2.8-12,11.6-22.4,22.9-21.1"/>
		<path class="st46" d="M841.6,355.9c4.9-13.9,18.4-16.3,27.3-12.6"/>
		<path class="st45" d="M824.3,315.3c8.6,3.3,12.7,8.6,13.7,14.2"/>
		<path class="st45" d="M857.4,376.5c-3.4-3.9-11.4-7-14.8-2.8"/>
		<path class="st46" d="M821,354.1c3.2-4.3,17.7-0.7,21.6,5.9"/>
		<path class="st12" d="M842.1,323c0.1-0.5,0.1-1-0.1-1.6c-0.1-0.3-0.2-0.6-0.3-0.9c0-0.1,0-0.1,0-0.2c0-0.1-0.1-0.2-0.1-0.3
			c-0.2-0.7-0.5-1.2-1-1.8c-0.7-0.8-1.9-1.1-2.9-1c-0.5,0.1-1,0.2-1.4,0.5c-0.2,0.1-0.4,0.2-0.6,0.3c-0.7,0.5-1.2,0.9-1.7,1.7
			c-0.4,0.7-0.5,1.1-0.6,1.8c-0.1,0.7-0.1,0.8,0.1,1.7c0.1,0.4-0.1,0.1,0.4,1.1c0.4,0.7,0.9,1.3,1.6,1.7c1.4,0.8,3.3,1,4.6,0.1
			c0.6-0.4,1.1-0.8,1.5-1.5C841.9,324.1,842,323.6,842.1,323z"/>
		<path class="st12" d="M848.7,320c0.1-0.3,0.1-0.7,0-1c0-0.2-0.1-0.4-0.2-0.5c0,0,0-0.1,0-0.1c0-0.1,0-0.1-0.1-0.2
			c-0.1-0.5-0.3-0.8-0.6-1.1c-0.5-0.5-1.2-0.7-1.8-0.6c-0.3,0-0.6,0.1-0.9,0.3c-0.1,0.1-0.3,0.1-0.4,0.2c-0.5,0.3-0.8,0.6-1.1,1.1
			c-0.3,0.4-0.3,0.7-0.4,1.1c-0.1,0.4-0.1,0.5,0,1.1c0.1,0.3-0.1,0.1,0.3,0.7c0.2,0.4,0.6,0.8,1,1.1c0.9,0.5,2.1,0.6,2.9,0
			c0.4-0.2,0.7-0.5,1-0.9C848.6,320.7,848.7,320.4,848.7,320z"/>
		<path class="st12" d="M844.4,375.8c0.1-0.3,0.1-0.7,0-1c0-0.2-0.1-0.4-0.2-0.5c0,0,0-0.1,0-0.1c0-0.1,0-0.1-0.1-0.2
			c-0.1-0.5-0.3-0.8-0.6-1.1c-0.5-0.5-1.2-0.7-1.8-0.6c-0.3,0-0.6,0.1-0.9,0.3c-0.1,0.1-0.3,0.1-0.4,0.2c-0.5,0.3-0.8,0.6-1.1,1.1
			c-0.3,0.4-0.3,0.7-0.4,1.1c-0.1,0.4-0.1,0.5,0,1.1c0.1,0.3-0.1,0.1,0.3,0.7c0.2,0.4,0.6,0.8,1,1.1c0.9,0.5,2.1,0.6,2.9,0
			c0.4-0.2,0.7-0.5,1-0.9C844.3,376.5,844.4,376.1,844.4,375.8z"/>
		<path class="st46" d="M800,370.1c10-10.3,38.8,1.3,30.5,12"/>
		<path class="st12" d="M836.5,380.7c0-0.4-0.1-0.9-0.1-1.3c-0.2-0.8-0.7-1.8-1.3-2.4c-0.2-0.2-0.8-0.7-1-0.8c0,0-0.1,0-0.1,0
			c-0.4-0.2-0.7-0.3-1.1-0.5c-0.4-0.1-0.9-0.2-1.4-0.2c-0.4,0-0.7,0.1-1.1,0.1c-0.6,0.1-1.1,0.4-1.5,0.8c-0.3,0.2-0.6,0.5-0.8,0.8
			c-0.4,0.4-0.7,1-0.8,1.6c-0.1,0.4-0.1,0.8-0.2,1.1c0,0.4,0.1,0.8,0.1,1.1c0.1,0.6,0.4,1.1,0.8,1.5c0.1,0.2,0.3,0.4,0.4,0.6
			c0,0.1,0.1,0.2,0.1,0.3c0.2,0.3,0.4,0.6,0.6,0.8c0.4,0.4,0.8,0.7,1.4,0.9c0.3,0.2,0.7,0.3,1,0.3c0.3,0.1,0.7,0.1,1,0
			c0.4,0,0.7-0.1,1-0.3c0.5-0.2,1-0.4,1.3-0.8c0.2-0.2,0.4-0.4,0.5-0.6c0.2-0.2,0.4-0.4,0.5-0.6
			C836.3,382.3,836.5,381.5,836.5,380.7z"/>
		<g>
			<path class="st12" d="M859.4,326.1c-2.1-1.5-4.8-2.4-7.4-1.9c-1.4,0.2-2.4,0.7-3.5,1.2c-2.3,1-3.9,2.8-4.5,5.2
				c-0.6,2.1-0.4,5,1.3,6.7c1,1,1.7,1.8,2.8,2.4c0.6,1,1.3,1.8,2.3,2.5c2.1,1.6,4.7,2.1,7.2,1.4c2.8-0.7,4.5-2.4,5.7-4.9
				c0.3-0.7,0.6-1.6,0.7-2.4c0.3-1.6-0.2-3-0.6-4.5c-0.1-0.3-0.2-0.7-0.3-1C862.4,329.1,861.1,327.3,859.4,326.1z"/>
			<path class="st45" d="M854.2,334.8c-4.9,1.7-10.7,8-8.1,12.7"/>
		</g>
	</g>
	<g>
		<g>
			<path class="st12" d="M289.2,352c-0.2-1.5-1.3-2.2-2.7-2.4c-5-0.7-10.1-0.1-15.1-0.2c0.1-0.1,0.3-0.2,0.4-0.3
				c0.9-0.6,1.9-1.3,2.9-1.8c1-0.5,1.4-0.7,2.6-1.1c2-0.8,3.8-1.6,5.5-3c1.8-1.4,2.9-3.4,3.7-5.5c0.6-1.5-1-3.7-2.7-3.5
				c-3.6,0.5-7,1.6-10.2,3.1c0,0,0-0.1,0.1-0.1c0.1-0.3,0.3-0.6,0.4-0.9c0.3-0.5,0.6-1.1,1-1.6c0.5-0.8,1.1-1.6,1.7-2.3
				c0.6-0.5,1.2-1.1,1.7-1.7c1.5-1.2,2.8-2.6,3.7-4.4c1-1.8-0.2-4.1-2.4-4.1c-3.1,0-6,2-8.5,3.5c-0.5,0.3-1.1,0.6-1.6,0.9
				c0.4-0.4,0.7-0.8,1.1-1.2c1.2-1.4,2-3.2,2.9-4.8c1-1.8,2-3.7,2.6-5.7c0.6-2-1.4-3.9-3.4-3.4c-2.2,0.6-3.9,2-5.2,3.8
				c-0.3-0.7-0.6-1.5-0.9-2.2c-0.4-0.9-0.7-1.9-1-2.8c0-0.1-0.1-0.3-0.1-0.3c0-0.2,0-0.3,0-0.5c0,0,0,0,0,0c0-0.3,0.1-0.5,0.2-0.8
				c0.5-1.5-0.9-2.9-2.3-3c0,0,0,0,0,0c-1.1-0.5-2.7-0.1-3.3,1.1c-0.8,1.6-1.2,3.2-1,4.9c0.1,1.6,0.5,3.1,0.9,4.6
				c0.3,1.4,0.5,2.9,0.4,4.4c-0.5-0.5-1-0.9-1.4-1.4c-0.5-0.5-0.9-0.9-1.4-1.4c-0.2-0.3-0.4-0.5-0.5-0.8c-0.3-0.5-0.6-1-1-1.5
				c-0.1-0.2-0.3-0.4-0.5-0.6c-0.1-0.2-0.4-0.9-0.2-0.2c-0.4-1-1.3-1.8-2.5-1.7c-0.4-0.3-0.8-0.4-1.3-0.5c-1.6-0.2-2.8,1.6-3,3
				c-0.2,1.2,0.1,2.4,0.7,3.5c1,1.8,2.6,3.3,4.1,4.8c0.3,0.3,0.6,0.6,0.9,0.9c0.1,0.1,0.2,0.2,0.3,0.3c0.1,0.1,0.1,0.2,0.2,0.2
				c0.7,1,1.4,2,2.1,3c-0.5-0.3-1-0.7-1.5-1c-0.3-0.2-0.5-0.4-0.8-0.6c0,0,0,0,0,0c0,0,0,0,0,0c-0.1-0.1-0.3-0.2-0.4-0.3
				c-0.7-0.6-1.4-1.1-2.2-1.6c-1.4-1-2.9-1.7-4.6-2.3c-1.3-0.4-2.8,0.4-3.3,1.6c-0.5,1.4,0,2.6,1.1,3.4c1.7,1.2,3.4,2.4,5.2,3.7
				c1.6,1.1,3.1,2.4,4.8,3.3c0.2,0.1,0.5,0.3,0.7,0.4c0.3,0.1,0.7,0.6,0.2,0.1c0.2,0.2,0.3,0.3,0.5,0.5c0,0.1,0.1,0.2,0.2,0.2
				c0.1,0.1,0.1,0.2,0.2,0.3c-0.1-0.1,0.1,0,0.1,0.2c0,0,0,0,0,0c0,0,0,0,0,0.1c0,0,0,0,0-0.1c0,0.1,0.1,0.2,0.1,0.3
				c0.1,0.2,0.1,0.4,0.2,0.6c-1-0.4-2-0.6-3.1-0.7c-0.5,0-1,0-1.5-0.1c-0.2,0-0.3,0-0.5,0c0.1,0-0.5-0.1-0.6-0.1
				c-0.5-0.1-0.7-0.3-1.1-0.5c0,0,0,0,0,0c0,0,0,0,0,0c-0.2-0.2-0.3-0.3-0.5-0.5c-1.6-1.5-3.2-2.6-5.5-2.6c-2.7,0-3.8,3.8-1.4,5.1
				c0.4,0.2,0.9,0.5,1.3,0.8c0,0,0.3,0.3,0.4,0.3c0.2,0.1,0.3,0.3,0.5,0.4c0.7,0.7,1.3,1.4,2,2.1c1.4,1.6,2.9,3.1,4.7,4.1
				c1.7,1,3.5,1.7,5.3,2.7c-0.9,0-1.8-0.1-2.7-0.1c-2.6,0-5.1-0.1-7.6,0.3c-0.1,0-0.5,0.1-0.5,0.1c-0.2,0-0.4,0-0.6,0
				c-0.5,0-1,0-1.2-0.1c-0.9-0.2-1.7-0.5-2.6-0.7c-2.7-0.7-5.2-0.4-6.9,2c-1.1,1.6,0.1,3.5,1.6,4c2.1,0.8,4.4,1.2,6.6,1.5
				c1.4,0.2,2.7,0.4,4.1,0.5c0.3,0,0.6,0.1,0.9,0.1c0,0,0.1,0,0.1,0c0,0,0.1,0,0.1,0c0.5,0.1,1.1,0.2,1.6,0.3c0.3,0.1,0.7,0.1,1,0.2
				c1.5,0.6,3,1.4,4.5,2.5c0.6,0.5,0.9,0.7,1.6,1.2c0.6,0.5,1.2,1,1.8,1.6c1.3,1.1,4.8,4.9,6,6c1.2,1.1,1.2-1.5,2-3.2
				c0.5-1,1-2,1.6-3c0.1-0.2,0.2-0.3,0.3-0.5c0.1-0.1,0.2-0.2,0.2-0.2c0.6-0.4,1.2-0.8,1.8-1.1c0.3-0.2,0.7-0.3,1-0.5
				c0.2-0.1,0.3-0.1,0.5-0.2c0,0,0,0,0.1,0c0,0,0.1,0,0.1,0c1.3-0.5,2.7-1,4-1.5c0.7-0.3,1.5-0.6,2.2-0.9c0.2,0,0.4,0,0.5,0
				c2.6-0.1,5.2-0.5,7.7-1.4C288.6,354.6,289.5,353.5,289.2,352z"/>
			<path class="st12" d="M257.1,335.9c0,0,0.1,0.1,0.1,0.2c0,0,0,0,0,0C257.2,336,257.2,335.9,257.1,335.9z"/>
		</g>
		<path class="st48" d="M259.8,433.7c0,0-2.1-6-2.7-17.7c-0.6-11.7,10.5-34.2,7.7-51.4c-2.8-17.1-0.7-20.8,0.8-32.2
			s-1.5-12.2-2.2-17.6"/>
	</g>
	<g>
		<path class="st12" d="M256.3,365.6c-1.2-0.7-2.6-0.4-3.5,0.7c-1,1.1-1.7,2.4-2.5,3.7c-0.2,0.2-0.3,0.5-0.5,0.7
			c-0.1,0.1-0.2,0.3-0.3,0.4c0,0,0,0.1-0.1,0.1c-0.2,0.2-0.3,0.4-0.5,0.6c0,0-0.4,0.3-0.4,0.4c-0.3,0.2-0.3,0.2-0.1,0.1
			c-0.2,0.1-0.3,0.2-0.5,0.2c-0.5,0.2-0.9,0.5-1.3,0.7c0.2-0.8,0.4-1.6,0.5-2.4c0.1-0.5,0.1-1,0.2-1.5c0-0.2,0.1-0.4,0.1-0.7
			c0,0,0.1-0.3,0.1-0.4c1.1-3.6,3.3-7,3.6-10.8c0.1-1.1-0.3-2.1-1.3-2.7c-1-0.6-2-0.4-3,0.2c-3,1.9-3.9,5.9-5.3,9
			c0.2-1.5,0.3-3.1,0.4-4.6c0.1-1.7,0.3-3.5,0.3-5.2c0-1.7-0.3-3.4-1.6-4.6c-1-0.9-3.1-0.7-3.8,0.5c-0.8,1.3-1.4,2.7-1.5,4.3
			c-0.1,0.7-0.1,1.5,0,2.2c0,0.3,0,0.7,0,1c0,0.1,0,0.3,0,0.4c0,0,0,0.1,0,0.1c0,0.5,0,0.9-0.1,1.4c-0.5-0.9-1.1-1.7-1.8-2.4
			c-0.7-0.8-1.5-1.6-2.2-2.5c-0.1-0.2-0.3-0.4-0.4-0.6c0,0,0,0,0,0c-0.1-0.1-0.1-0.3-0.2-0.4c0-0.1,0-0.1-0.1-0.1
			c0-0.7-0.2-1.4-0.5-2.1c-0.6-1.2-1.8-2-3.2-1.6c-1.3,0.3-2.2,1.6-2,2.9c0.1,0.5,0.2,0.9,0.3,1.4c-0.1,0.5-0.2,1-0.2,1.5
			c-0.1,1.6,0.4,3,1.1,4.4c0.1,0.2,0.2,0.4,0.3,0.5c-0.9-0.4-1.9-0.7-2.9-1.1c-1.2-0.5-2.7,0-3.4,1.1c-0.2,0.1-0.4,0.3-0.6,0.5
			c-0.9,1.2-0.5,2.6,0.5,3.5c1.9,1.8,4.3,2.8,6.5,4c1,0.5,2,1.2,3,1.8c-0.6-0.2-1.1-0.3-1.8-0.5c-1.9-0.5-3.7-0.9-5.7-0.9
			c-2.1,0.1-3,2.8-1.8,4.3c2,2.6,4.9,3.5,8.1,4c2.2,0.4,4.3,1.1,6.5,1.8c-0.2,0-0.4,0.1-0.6,0.1c-0.7,0.1-1.4,0.3-2.2,0.3
			c0,0-0.3,0-0.4,0c-0.2,0-0.4,0-0.7-0.1c-0.4-0.1-0.8-0.1-1.2-0.2c-1.8-0.4-3.5-0.8-5.3-0.5c-1.6,0.2-2.4,1.5-2.4,3
			c0.1,4.6,5.8,4.8,9,4.6c0.7,0,1.4-0.1,2.1-0.2c0.2,0,0.5,0,0.7-0.1c0.2,0,0.5,0.1,0.6,0.1c0.1,0.1,0.4,0.1,0.4,0.2
			c0.2,0.1,0.5,0.2,0.7,0.3c0.6,0.2,1.3,0.4,1.9,0.5c1.5,0.2,3.3-0.2,4.7-0.6c0.3-0.1,0.6-0.3,0.8-0.5c1.2-0.2,2.1-1.1,2.3-2.3
			c0,0,0,0,0,0c0.1-0.1,0.1-0.1,0.2-0.2c0,0,0,0,0,0c0.5-0.4,1.1-0.9,1.7-1.2c1.3-0.9,2.7-1.7,3.6-3.1c1.2-1.7,1.9-3.7,3.1-5.2
			c1.2-1.5,2.6-2.9,3.3-4.8C257.8,367.7,257.5,366.3,256.3,365.6z"/>
		<path class="st39" d="M231.1,361.1c4.7,9.3,8.2,9.3,10.2,22.8c2,13.5,11,40,18.7,47.4"/>
	</g>
	<g>
		<path class="st12" d="M304.1,364.8c-1.6-1.2-3.6-0.9-5.3-0.2c-0.6,0.2-1.2,0.6-1.7,0.8c-0.3,0.1-0.7,0.2-1.1,0.3c0,0-0.1,0-0.1,0
			c0,0-0.1,0-0.1,0c-0.2,0-0.4,0-0.6,0c-0.5,0-1,0-1.6,0c1.4-0.9,2.8-1.8,4.2-2.9c0.8-0.6,1.5-1.3,2.2-2c0.4-0.3,0.7-0.7,1.1-1
			c0.1-0.1,0.3-0.2,0.4-0.3c0,0,0.4-0.2,0.4-0.2c1.7-1.1,3.4-1.9,4.7-3.5c0.5-0.6,0.4-1.6,0.1-2.2c-0.4-0.7-1.1-1.1-1.9-1.2
			c-2.2-0.2-4.5,0.3-6.5,0.9c-0.5,0.2-0.9,0.3-1.4,0.5c0.3-0.4,0.7-0.9,1-1.4c0.3-0.4,0.6-0.9,0.9-1.3c0-0.1,0.3-0.4,0.3-0.3
			c0.1-0.1,0.3-0.3,0.4-0.4c0.6-0.5,1.2-1,1.8-1.5c1.5-1.2,3.5-2.9,3.3-5c-0.1-1.2-0.9-2.3-2.2-2.3c-3,0-5.5,1.8-7.5,3.9
			c-0.4,0.4-0.7,0.8-1,1.2c0.1-0.8,0.2-1.6,0.1-2.4c-0.1-1.1-0.2-2.2-0.3-3.3c-0.1-0.5-0.1-1-0.1-1.5c0-0.2,0-0.3,0-0.5c0,0,0,0,0,0
			c0.1-0.7-0.1-1.4-0.6-1.9c-0.5-0.6-1.3-0.8-2-0.6c-0.1,0-0.3,0-0.4,0c-1.5,0.3-2.7,1.4-2.7,3c0,0.5,0.2,1,0.3,1.5
			c0.1,0.2,0.1,0.4,0.2,0.6c0,0.1,0,0.4,0,0.3c-0.1,1.1-0.7,2.5-0.9,3.7c-0.3,1.4-0.5,2.8-0.8,4.3c-0.1,0.4-0.2,0.7-0.2,1.1
			c-0.3-0.4-0.7-0.7-1.1-1c-0.2-1.4-0.8-2.6-1.4-3.8c-0.2-0.3-0.4-0.7-0.5-1c-0.1-0.2-0.2-0.3-0.2-0.5c0,0-0.1-0.3-0.2-0.4
			c0-0.1-0.1-0.3-0.1-0.4c0-0.1,0-0.3,0-0.3c0-0.1,0-0.2,0-0.3c0-0.1,0-0.1,0-0.2c0,0,0-0.1,0-0.1c0.3-0.9-0.3-1.9-1-2.2
			c-0.3-0.1-0.7-0.2-1-0.1c-0.3-0.1-0.6,0-0.9,0c-1.2,0.3-1.9,1.5-1.6,2.7c0,0.1,0,0.6,0,0.1c0,0.2,0,0.3,0,0.5c0,0.4,0,0.7-0.1,1.1
			c0,0.1,0,0.1,0,0.1c0,0,0,0.1,0,0.1c0,0.2-0.1,0.3-0.1,0.5c-0.1,0.5-0.2,1-0.2,1.5c-0.2,1.6-0.2,3.3,0.7,4.7
			c0.4,0.7,1,1.3,1.5,1.9c0.1,0.1,0.2,0.2,0.3,0.4c0,0,0.1,0.2,0.2,0.2c0,0.1,0.2,0.3,0.2,0.3c0.1,0.2,0.1,0.4,0.2,0.6
			c0.3,1.4,0.6,2.7,1.3,3.8c-0.1,0-0.1,0-0.2,0c-0.1,0-0.6-0.1-0.6-0.1c-0.2,0-0.5-0.1-0.7-0.2c-0.1,0-0.1,0-0.2,0
			c0,0-0.1-0.1-0.2-0.1c-0.2-0.1-0.4-0.3-0.6-0.4c-0.1-0.1-0.4-0.5-0.4-0.5c-0.1-0.2-0.2-0.3-0.3-0.5c-0.3-0.5-0.6-1-0.9-1.5
			c-0.6-1-1.4-1.9-2.5-2.4c-0.8-0.4-1.6-0.5-2.4-0.7c0,0,0-0.1,0-0.1c0.1-1.2-1.1-2.2-2.2-2.3c-1.3,0-2.1,1-2.3,2.2
			c0,0.3,0,0.6,0,0.9c0.1,1.7,0.7,3.3,1.8,4.6c1,1.2,2.2,2.2,3.4,3.2c0.6,0.5,1.1,1.1,1.7,1.6c0,0,0.1,0.1,0.1,0.1
			c0,0,0,0.1,0.1,0.1c0.1,0.2,0.2,0.4,0.3,0.5c0.2,0.4,0.4,0.9,0.7,1.3c0.4,0.6,0.8,1.2,1.3,1.8c0,0-0.1,0-0.1,0
			c0,0-0.2-0.1-0.3-0.1c-0.1,0-0.3-0.2-0.3-0.2c-0.1,0-0.1-0.1-0.1-0.1c0,0,0,0,0,0c-0.2-0.2-0.5-0.4-0.7-0.7c-0.9-1-1.8-2.2-3-2.9
			c-1.7-1-3.7,0.5-3.3,2.4c0.9,4.1,3,7.8,6.9,9.7c1.2,0.6,2.5,1.2,3.6,1.9c0,0,0,0,0.1,0c0.1,0.1,0.2,0.2,0.3,0.3
			c-0.4-0.4-0.1-0.1,0,0.1c0,0,0,0,0,0.1c0,0,0,0,0,0c0,0.2,0.1,0.3,0.1,0.5c0,0,0,0,0,0c0,0,0,0,0,0.1c0,0.2,0,0.4,0,0.6
			c0,0.1,0,0.2,0,0.4c0,0,0,0.1,0,0.1c-0.2,1.1,0.2,2.2,1.2,2.6c1,0.4,2.2,0.1,2.8-0.8c2.2-3.3,5.9-5.4,9.4-7.2
			c1.7-0.8,3.3-1.6,5-2.3c1.7-0.7,3.5-1.4,4.8-2.8C305.5,367.2,305.3,365.7,304.1,364.8z M301.5,368.4
			C301.5,368.4,301.5,368.4,301.5,368.4C301.5,368.4,301.5,368.4,301.5,368.4c0.1,0,0.1,0,0.2,0.1
			C301.6,368.5,301.6,368.5,301.5,368.4z"/>
		<path class="st48" d="M289.2,352c0.5,9.2-0.9,10.2-4,23.8s-2.8,18.6-7,25.4c-8.2,13.3-18.8,3.6-18.4,32.5"/>
	</g>
	<path class="st28" d="M491.2,453.8c0.2-0.8,0.1-1.6-0.1-2.4c-0.6-2-3.2-2.4-4.5-0.7c-0.3,0.4-0.6,0.6-0.9,0.5
		c-0.3-0.1-0.5-0.4-0.6-0.8c-0.6-2-3.1-2.7-4.4-1c-0.5,0.6-0.9,1.4-1,2.2c-0.6,2.9,1.5,5.8,4.7,6.4S490.6,456.7,491.2,453.8z"/>
	<circle class="st36" cx="593" cy="417.8" r="4.5"/>
	<path class="st28" d="M828.7,443.1c-3.4,2.8-6.3,4.5-8.1,2.3c-1.9-2.1-1.9-7.4,1.4-10.2c3.3-2.9,8.5-1.9,10.3,0.2
		C834.2,437.6,832,440.2,828.7,443.1z"/>
	<circle class="st28" cx="114.7" cy="433.1" r="5.1"/>
	<path class="st19" d="M263.3,437.3c-3.8,4-6.5,3.7-8.5,1.8c-2-1.9-2.4-4.6,1.4-8.6c3.4-3.6,7.4-2.7,9.8-3.5
		c0.2-0.1,0.4,0.1,0.4,0.4C265.6,429.7,266.7,433.7,263.3,437.3z"/>
	<path class="st19" d="M319.7,26.8c0.9-2.2,2-2.5,3.1-2.1s1.7,1.4,0.8,3.6c-0.8,2-2.5,2.2-3.3,2.9c-0.1,0.1-0.2,0-0.2-0.1
		C320,30.2,318.9,28.8,319.7,26.8z"/>
	<path class="st49" d="M714.9,26.4L714.9,26.4c0.5,1.2,2,1.6,3.1,1l0,0c1.8-1,3.8,0.7,3.1,2.6v0c-0.4,1.2,0.2,2.5,1.5,2.8v0
		c2,0.5,2.2,3.2,0.4,4.1h0c-1.2,0.5-1.6,2-1,3.1v0c1,1.8-0.7,3.8-2.6,3.1h0c-1.2-0.4-2.5,0.2-2.8,1.5v0c-0.5,2-3.2,2.2-4.1,0.4v0
		c-0.5-1.2-2-1.6-3.1-1v0c-1.8,1-3.8-0.7-3.1-2.6v0c0.4-1.2-0.2-2.5-1.5-2.8l0,0c-2-0.5-2.2-3.2-0.4-4.1v0c1.2-0.5,1.6-2,1-3.1v0
		c-1-1.8,0.7-3.8,2.6-3.1v0c1.2,0.4,2.5-0.2,2.8-1.5v0C711.3,24.8,714,24.5,714.9,26.4z"/>
	<path class="st49" d="M468.2,73L468.2,73c0.3,0.6,1,0.8,1.6,0.5l0,0c0.9-0.5,2,0.4,1.6,1.3v0c-0.2,0.6,0.1,1.3,0.8,1.5l0,0
		c1,0.3,1.1,1.7,0.2,2.1l0,0c-0.6,0.3-0.8,1-0.5,1.6l0,0c0.5,0.9-0.4,2-1.3,1.6l0,0c-0.6-0.2-1.3,0.1-1.5,0.8v0
		c-0.3,1-1.7,1.1-2.1,0.2l0,0c-0.3-0.6-1-0.8-1.6-0.5v0c-0.9,0.5-2-0.4-1.6-1.3l0,0c0.2-0.6-0.1-1.3-0.8-1.5l0,0
		c-1-0.3-1.1-1.7-0.2-2.1h0c0.6-0.3,0.8-1,0.5-1.6v0c-0.5-0.9,0.4-2,1.3-1.6l0,0c0.6,0.2,1.3-0.1,1.5-0.8v0
		C466.4,72.2,467.8,72.1,468.2,73z"/>
	<path class="st28" d="M831.7,125.1c-1.5,0-2.9,0.4-4.2,1c-3.3,1.7-3.1,6.5,0.3,8.2c0.8,0.4,1.3,0.9,1.3,1.4s-0.5,1-1.3,1.4
		c-3.4,1.7-3.6,6.5-0.3,8.2c1.3,0.7,2.7,1,4.2,1c5.4,0,9.7-4.8,9.7-10.6S837,125.1,831.7,125.1z"/>
	<path class="st8" d="M37.8,144.3c-1.8,3.5,2.3,6.9,6.1,4.3c1.5-1,0.9-3.5-0.8-2.6s-1.5-0.7-0.9-1.2
		C43.8,143.7,39.5,140.8,37.8,144.3z"/>
	<circle class="st36" cx="694.9" cy="120.1" r="2"/>
	<path class="st50" d="M548.8,6c-1.5,2.2-5.7,1.9-5.7,1.9s-1.9-3.8-0.4-6c1.5-2.2,5.7-1.9,5.7-1.9S550.3,3.8,548.8,6z"/>
	<circle class="st16" cx="868.9" cy="211.6" r="1.9"/>
	<path class="st12" d="M147.5,28.1c-1.7,0.9-4,1.1-5.9,0.5c-0.8-0.3-1.7,0.3-1.8,1.2c-0.1,1.9-1.1,4-2.5,5.3
		c-0.7,0.6-0.6,1.7,0.2,2.1c1.6,1,3,2.9,3.4,4.8c0.2,0.9,1.2,1.3,2,0.9c1.7-0.9,4-1.1,5.9-0.5c0.8,0.3,1.7-0.3,1.8-1.2
		c0.1-1.9,1.1-4,2.5-5.3c0.7-0.6,0.6-1.7-0.2-2.1c-1.6-1-3-2.9-3.4-4.8C149.3,28.2,148.3,27.7,147.5,28.1z"/>
	<path class="st7" d="M200.6,50.7c-3.5-2.5-5.8-4.8-4.2-7.1c1.6-2.3,6.5-3.6,10-1.1c3.5,2.4,3.9,7.5,2.3,9.8
		C207.1,54.5,204.1,53.1,200.6,50.7z"/>
	<path class="st7" d="M97.3,213.1c-1.6-1.4-2.6-2.6-1.7-3.7c0.9-1,3.3-1.5,4.9-0.1c1.6,1.4,1.6,3.9,0.7,4.9
		C100.3,215.3,98.9,214.4,97.3,213.1z"/>
	<circle class="st16" cx="257.1" cy="182.7" r="4"/>
</g>
</svg>
